<svg width="747" height="106" viewBox="0 0 747 106" fill="none" xmlns="http://www.w3.org/2000/svg">
<rect width="747" height="106" rx="20" fill="white"/>
<mask id="path-2-inside-1_94_421" fill="white">
<path d="M65 21.333C77.2423 21.333 87.167 31.2577 87.167 43.5C87.167 60.6122 68.3547 70.3821 65.3906 71.8154C65.1343 71.9393 64.8657 71.9393 64.6094 71.8154C61.6453 70.3822 42.833 60.6122 42.833 43.5C42.833 31.2577 52.7577 21.333 65 21.333ZM65 34C59.7533 34 55.5 38.2533 55.5 43.5C55.5 48.7467 59.7533 53 65 53C70.2467 53 74.5 48.7467 74.5 43.5C74.5 38.2533 70.2467 34 65 34Z"/>
</mask>
<path d="M65 21.333C77.2423 21.333 87.167 31.2577 87.167 43.5C87.167 60.6122 68.3547 70.3821 65.3906 71.8154C65.1343 71.9393 64.8657 71.9393 64.6094 71.8154C61.6453 70.3822 42.833 60.6122 42.833 43.5C42.833 31.2577 52.7577 21.333 65 21.333ZM65 34C59.7533 34 55.5 38.2533 55.5 43.5C55.5 48.7467 59.7533 53 65 53C70.2467 53 74.5 48.7467 74.5 43.5C74.5 38.2533 70.2467 34 65 34Z" fill="#E07A5F"/>
<path d="M65 21.333V20.333V21.333ZM87.167 43.5H88.167H87.167ZM65.3906 71.8154L65.8257 72.7158L65.826 72.7157L65.3906 71.8154ZM64.6094 71.8154L64.174 72.7157L64.1743 72.7158L64.6094 71.8154ZM42.833 43.5H41.833H42.833ZM65 21.333V22.333C76.69 22.333 86.167 31.81 86.167 43.5H87.167H88.167C88.167 30.7054 77.7946 20.333 65 20.333V21.333ZM87.167 43.5H86.167C86.167 51.6658 81.68 58.1409 76.7061 62.8081C71.7377 67.47 66.3953 70.2189 64.9553 70.9152L65.3906 71.8154L65.826 72.7157C67.3501 71.9787 72.8958 69.1259 78.0746 64.2665C83.2478 59.4124 88.167 52.4464 88.167 43.5H87.167ZM65.3906 71.8154L64.9555 70.9151C64.9531 70.9162 64.9698 70.9083 65 70.9083C65.0302 70.9083 65.0469 70.9162 65.0445 70.9151L64.6094 71.8154L64.1743 72.7158C64.7054 72.9725 65.2946 72.9725 65.8257 72.7158L65.3906 71.8154ZM64.6094 71.8154L65.0447 70.9152C63.6047 70.2189 58.2623 67.47 53.2939 62.8081C48.32 58.1409 43.833 51.6658 43.833 43.5H42.833H41.833C41.833 52.4464 46.7522 59.4124 51.9254 64.2665C57.1042 69.1259 62.6499 71.9787 64.174 72.7157L64.6094 71.8154ZM42.833 43.5H43.833C43.833 31.81 53.31 22.333 65 22.333V21.333V20.333C52.2054 20.333 41.833 30.7054 41.833 43.5H42.833ZM65 34V33C59.201 33 54.5 37.701 54.5 43.5H55.5H56.5C56.5 38.8056 60.3056 35 65 35V34ZM55.5 43.5H54.5C54.5 49.299 59.201 54 65 54V53V52C60.3056 52 56.5 48.1944 56.5 43.5H55.5ZM65 53V54C70.799 54 75.5 49.299 75.5 43.5H74.5H73.5C73.5 48.1944 69.6944 52 65 52V53ZM74.5 43.5H75.5C75.5 37.701 70.799 33 65 33V34V35C69.6944 35 73.5 38.8056 73.5 43.5H74.5Z" fill="#E07A5F" mask="url(#path-2-inside-1_94_421)"/>
<path d="M84.1969 67.25C86.1425 68.6942 87.1667 70.3324 87.1667 72C87.1667 73.6676 86.1425 75.3058 84.1969 76.75C82.2514 78.1942 79.4531 79.3934 76.0834 80.2272C72.7136 81.061 68.8911 81.5 65 81.5C61.109 81.5 57.2865 81.061 53.9167 80.2272C50.547 79.3934 47.7487 78.1942 45.8031 76.75C43.8576 75.3058 42.8334 73.6676 42.8334 72C42.8334 70.3324 43.8576 68.6942 45.8031 67.25" stroke="#E07A5F" stroke-width="2" stroke-linecap="round"/>
<path d="M136.6 44.075C136.6 46.675 134.475 49.175 130.6 49.175C127.125 49.175 124.45 47.275 124.45 44.2H127.5C127.625 45.625 128.625 46.775 130.6 46.775C132.6 46.775 133.725 45.7 133.725 44.225C133.725 40.025 124.5 42.75 124.5 36.35C124.5 33.3 126.925 31.4 130.475 31.4C133.8 31.4 136.15 33.15 136.4 36.125H133.25C133.15 34.95 132.125 33.875 130.325 33.825C128.675 33.775 127.4 34.575 127.4 36.25C127.4 40.175 136.6 37.725 136.6 44.075ZM139.963 49V30.5H142.813V36.825C143.763 35.675 145.313 35 147.088 35C150.163 35 152.563 37.025 152.563 40.875V49H149.738V41.3C149.738 38.775 148.363 37.475 146.288 37.475C144.188 37.475 142.813 38.775 142.813 41.3V49H139.963ZM155.248 42.05C155.248 37.8 158.123 35 161.748 35C164.073 35 165.673 36.1 166.523 37.225V35.225H169.398V49H166.523V46.95C165.648 48.125 163.998 49.225 161.698 49.225C158.123 49.225 155.248 46.3 155.248 42.05ZM166.523 42.1C166.523 39.15 164.498 37.475 162.348 37.475C160.223 37.475 158.173 39.075 158.173 42.05C158.173 45.025 160.223 46.75 162.348 46.75C164.498 46.75 166.523 45.075 166.523 42.1ZM175.992 41.75V49H173.142V35.225H175.992V37.225C176.792 35.85 178.167 35 180.117 35V37.95H179.392C177.292 37.95 175.992 38.825 175.992 41.75ZM188.536 37.4C186.611 37.4 185.061 38.7 184.761 40.875H192.386C192.336 38.75 190.661 37.4 188.536 37.4ZM194.986 44.9C194.211 47.3 192.036 49.225 188.661 49.225C184.711 49.225 181.786 46.425 181.786 42.1C181.786 37.775 184.586 35 188.661 35C192.586 35 195.361 37.725 195.361 41.775C195.361 42.25 195.336 42.7 195.261 43.175H184.736C184.936 45.45 186.561 46.825 188.661 46.825C190.411 46.825 191.386 45.975 191.911 44.9H194.986ZM210.085 45.725L214.11 35.225H217.06L208.61 55.475H205.66L208.46 48.775L203.035 35.225H206.21L210.085 45.725ZM232.336 42.1C232.336 46.425 229.136 49.225 225.186 49.225C221.261 49.225 218.286 46.425 218.286 42.1C218.286 37.775 221.386 35 225.311 35C229.236 35 232.336 37.775 232.336 42.1ZM221.186 42.1C221.186 45.225 223.036 46.75 225.186 46.75C227.311 46.75 229.411 45.225 229.411 42.1C229.411 38.975 227.386 37.475 225.261 37.475C223.111 37.475 221.186 38.975 221.186 42.1ZM247.628 35.225V49H244.778V47.35C243.878 48.525 242.328 49.2 240.703 49.2C237.478 49.2 235.028 47.175 235.028 43.325V35.225H237.853V42.9C237.853 45.425 239.228 46.725 241.303 46.725C243.403 46.725 244.778 45.425 244.778 42.9V35.225H247.628ZM254.239 41.75V49H251.389V35.225H254.239V37.225C255.039 35.85 256.414 35 258.364 35V37.95H257.639C255.539 37.95 254.239 38.825 254.239 41.75ZM267.928 45.175V37.55H266.303V35.225H267.928V31.8H270.803V35.225H274.153V37.55H270.803V45.175C270.803 46.2 271.203 46.625 272.403 46.625H274.153V49H271.903C269.453 49 267.928 47.975 267.928 45.175ZM279.629 41.75V49H276.779V35.225H279.629V37.225C280.429 35.85 281.804 35 283.754 35V37.95H283.029C280.929 37.95 279.629 38.825 279.629 41.75ZM285.424 42.05C285.424 37.8 288.299 35 291.924 35C294.249 35 295.849 36.1 296.699 37.225V35.225H299.574V49H296.699V46.95C295.824 48.125 294.174 49.225 291.874 49.225C288.299 49.225 285.424 46.3 285.424 42.05ZM296.699 42.1C296.699 39.15 294.674 37.475 292.524 37.475C290.399 37.475 288.349 39.075 288.349 42.05C288.349 45.025 290.399 46.75 292.524 46.75C294.674 46.75 296.699 45.075 296.699 42.1ZM301.692 35.225H304.742L308.642 46.45L312.542 35.225H315.567L310.317 49H306.917L301.692 35.225ZM323.522 37.4C321.597 37.4 320.047 38.7 319.747 40.875H327.372C327.322 38.75 325.647 37.4 323.522 37.4ZM329.972 44.9C329.197 47.3 327.022 49.225 323.647 49.225C319.697 49.225 316.772 46.425 316.772 42.1C316.772 37.775 319.572 35 323.647 35C327.572 35 330.347 37.725 330.347 41.775C330.347 42.25 330.322 42.7 330.247 43.175H319.722C319.922 45.45 321.547 46.825 323.647 46.825C325.397 46.825 326.372 45.975 326.897 44.9H329.972ZM333.151 49V30.5H336.001V49H333.151ZM339.743 49V30.5H342.593V49H339.743ZM346.335 49V35.225H349.185V49H346.335ZM347.785 33.4C346.76 33.4 345.96 32.6 345.96 31.575C345.96 30.55 346.76 29.75 347.785 29.75C348.785 29.75 349.585 30.55 349.585 31.575C349.585 32.6 348.785 33.4 347.785 33.4ZM362.702 49V41.3C362.702 38.775 361.327 37.475 359.252 37.475C357.152 37.475 355.777 38.775 355.777 41.3V49H352.927V35.225H355.777V36.8C356.702 35.675 358.227 35 359.877 35C363.102 35 365.527 37.025 365.527 40.875V49H362.702ZM368.212 42.05C368.212 37.8 371.087 35 374.712 35C376.962 35 378.637 36.05 379.487 37.225V35.225H382.362V49.225C382.362 52.975 379.937 55.8 375.637 55.8C371.962 55.8 369.237 53.975 368.887 50.925H371.712C372.137 52.35 373.662 53.325 375.637 53.325C377.837 53.325 379.487 51.975 379.487 49.225V46.925C378.612 48.1 376.962 49.225 374.712 49.225C371.087 49.225 368.212 46.3 368.212 42.05ZM379.487 42.1C379.487 39.15 377.462 37.475 375.312 37.475C373.187 37.475 371.137 39.075 371.137 42.05C371.137 45.025 373.187 46.75 375.312 46.75C377.462 46.75 379.487 45.075 379.487 42.1ZM398.4 37.4C396.475 37.4 394.925 38.7 394.625 40.875H402.25C402.2 38.75 400.525 37.4 398.4 37.4ZM404.85 44.9C404.075 47.3 401.9 49.225 398.525 49.225C394.575 49.225 391.65 46.425 391.65 42.1C391.65 37.775 394.45 35 398.525 35C402.45 35 405.225 37.725 405.225 41.775C405.225 42.25 405.2 42.7 405.125 43.175H394.6C394.8 45.45 396.425 46.825 398.525 46.825C400.275 46.825 401.25 45.975 401.775 44.9H404.85ZM415.154 49L412.179 44.325L409.379 49H406.404L410.854 42.225L406.404 35.225H409.629L412.604 39.9L415.404 35.225H418.379L413.929 42.025L418.379 49H415.154ZM423.355 37.25C424.23 36.1 425.905 35 428.155 35C431.78 35 434.63 37.8 434.63 42.05C434.63 46.3 431.78 49.225 428.155 49.225C425.88 49.225 424.255 48.075 423.355 47V55.55H420.505V35.225H423.355V37.25ZM431.73 42.05C431.73 39.075 429.68 37.475 427.53 37.475C425.405 37.475 423.355 39.15 423.355 42.1C423.355 45.075 425.405 46.75 427.53 46.75C429.68 46.75 431.73 45.025 431.73 42.05ZM443.248 37.4C441.323 37.4 439.773 38.7 439.473 40.875H447.098C447.048 38.75 445.373 37.4 443.248 37.4ZM449.698 44.9C448.923 47.3 446.748 49.225 443.373 49.225C439.423 49.225 436.498 46.425 436.498 42.1C436.498 37.775 439.298 35 443.373 35C447.298 35 450.073 37.725 450.073 41.775C450.073 42.25 450.048 42.7 449.973 43.175H439.448C439.648 45.45 441.273 46.825 443.373 46.825C445.123 46.825 446.098 45.975 446.623 44.9H449.698ZM455.728 41.75V49H452.878V35.225H455.728V37.225C456.528 35.85 457.903 35 459.853 35V37.95H459.128C457.028 37.95 455.728 38.825 455.728 41.75ZM462.473 49V35.225H465.323V49H462.473ZM463.923 33.4C462.898 33.4 462.098 32.6 462.098 31.575C462.098 30.55 462.898 29.75 463.923 29.75C464.923 29.75 465.723 30.55 465.723 31.575C465.723 32.6 464.923 33.4 463.923 33.4ZM474.864 37.4C472.939 37.4 471.389 38.7 471.089 40.875H478.714C478.664 38.75 476.989 37.4 474.864 37.4ZM481.314 44.9C480.539 47.3 478.364 49.225 474.989 49.225C471.039 49.225 468.114 46.425 468.114 42.1C468.114 37.775 470.914 35 474.989 35C478.914 35 481.689 37.725 481.689 41.775C481.689 42.25 481.664 42.7 481.589 43.175H471.064C471.264 45.45 472.889 46.825 474.989 46.825C476.739 46.825 477.714 45.975 478.239 44.9H481.314ZM494.269 49V41.3C494.269 38.775 492.894 37.475 490.819 37.475C488.719 37.475 487.344 38.775 487.344 41.3V49H484.494V35.225H487.344V36.8C488.269 35.675 489.794 35 491.444 35C494.669 35 497.094 37.025 497.094 40.875V49H494.269ZM499.779 42.1C499.779 37.8 502.579 35 506.529 35C509.904 35 512.104 36.675 512.879 39.575H509.804C509.329 38.25 508.229 37.4 506.529 37.4C504.229 37.4 502.704 39.1 502.704 42.1C502.704 45.125 504.229 46.825 506.529 46.825C508.229 46.825 509.279 46.075 509.804 44.65H512.879C512.104 47.35 509.904 49.225 506.529 49.225C502.579 49.225 499.779 46.425 499.779 42.1ZM521.52 37.4C519.595 37.4 518.045 38.7 517.745 40.875H525.37C525.32 38.75 523.645 37.4 521.52 37.4ZM527.97 44.9C527.195 47.3 525.02 49.225 521.645 49.225C517.695 49.225 514.77 46.425 514.77 42.1C514.77 37.775 517.57 35 521.645 35C525.57 35 528.345 37.725 528.345 41.775C528.345 42.25 528.32 42.7 528.245 43.175H517.72C517.92 45.45 519.545 46.825 521.645 46.825C523.395 46.825 524.37 45.975 524.895 44.9H527.97Z" fill="#3E6652"/>
<path d="M132.265 78L131.313 75.365H126.145L125.193 78H123.561L127.845 66.219H129.63L133.897 78H132.265ZM130.871 74.107L128.729 68.123L126.587 74.107H130.871ZM135.186 73.308C135.186 70.401 137.107 68.531 139.623 68.531C141.085 68.531 142.428 69.279 143.074 70.35V65.42H144.638V78H143.074V76.249C142.513 77.286 141.306 78.153 139.606 78.153C137.107 78.153 135.186 76.198 135.186 73.308ZM143.074 73.325C143.074 71.166 141.612 69.874 139.912 69.874C138.212 69.874 136.767 71.115 136.767 73.308C136.767 75.501 138.212 76.793 139.912 76.793C141.612 76.793 143.074 75.518 143.074 73.325ZM146.674 73.308C146.674 70.401 148.595 68.531 151.111 68.531C152.573 68.531 153.916 69.279 154.562 70.35V65.42H156.126V78H154.562V76.249C154.001 77.286 152.794 78.153 151.094 78.153C148.595 78.153 146.674 76.198 146.674 73.308ZM154.562 73.325C154.562 71.166 153.1 69.874 151.4 69.874C149.7 69.874 148.255 71.115 148.255 73.308C148.255 75.501 149.7 76.793 151.4 76.793C153.1 76.793 154.562 75.518 154.562 73.325ZM166.809 76.232L169.699 68.684H171.297L165.687 82.386H164.089L165.925 77.898L162.168 68.684H163.885L166.809 76.232ZM181.692 73.325C181.692 76.283 179.567 78.153 176.915 78.153C174.28 78.153 172.274 76.283 172.274 73.325C172.274 70.384 174.348 68.531 176.983 68.531C179.635 68.531 181.692 70.384 181.692 73.325ZM173.855 73.325C173.855 75.688 175.3 76.793 176.915 76.793C178.53 76.793 180.111 75.688 180.111 73.325C180.111 70.979 178.564 69.874 176.966 69.874C175.334 69.874 173.855 70.979 173.855 73.325ZM191.988 68.684V78H190.441V76.623C189.846 77.592 188.707 78.136 187.466 78.136C185.324 78.136 183.641 76.81 183.641 74.141V68.684H185.171V73.937C185.171 75.824 186.208 76.793 187.772 76.793C189.37 76.793 190.441 75.807 190.441 73.801V68.684H191.988ZM196.147 72.934V78H194.6V68.684H196.147V70.197C196.674 69.16 197.677 68.514 199.156 68.514V70.112H198.748C197.269 70.112 196.147 70.775 196.147 72.934ZM205.814 75.45V69.959H204.607V68.684H205.814V66.338H207.361V68.684H209.792V69.959H207.361V75.45C207.361 76.368 207.701 76.691 208.653 76.691H209.792V78H208.398C206.749 78 205.814 77.32 205.814 75.45ZM213.213 72.934V78H211.666V68.684H213.213V70.197C213.74 69.16 214.743 68.514 216.222 68.514V70.112H215.814C214.335 70.112 213.213 70.775 213.213 72.934ZM217.43 73.308C217.43 70.401 219.351 68.531 221.85 68.531C223.584 68.531 224.774 69.415 225.318 70.384V68.684H226.882V78H225.318V76.266C224.757 77.269 223.55 78.153 221.833 78.153C219.351 78.153 217.43 76.198 217.43 73.308ZM225.318 73.325C225.318 71.166 223.856 69.874 222.156 69.874C220.456 69.874 219.011 71.115 219.011 73.308C219.011 75.501 220.456 76.793 222.156 76.793C223.856 76.793 225.318 75.518 225.318 73.325ZM228.392 68.684H230.058L232.965 76.572L235.855 68.684H237.504L233.849 78H232.047L228.392 68.684ZM242.987 69.84C241.474 69.84 240.216 70.843 240.046 72.662H245.928C245.945 70.843 244.585 69.84 242.987 69.84ZM247.339 75.127C246.863 76.827 245.367 78.153 243.055 78.153C240.403 78.153 238.448 76.283 238.448 73.325C238.448 70.384 240.335 68.531 243.055 68.531C245.758 68.531 247.526 70.435 247.526 72.985C247.526 73.325 247.509 73.597 247.475 73.92H240.029C240.148 75.807 241.474 76.844 243.055 76.844C244.449 76.844 245.333 76.13 245.673 75.127H247.339ZM249.568 78V65.42H251.115V78H249.568ZM253.751 78V65.42H255.298V78H253.751ZM257.935 78V68.684H259.482V78H257.935ZM258.734 67.171C258.139 67.171 257.68 66.712 257.68 66.117C257.68 65.522 258.139 65.063 258.734 65.063C259.295 65.063 259.754 65.522 259.754 66.117C259.754 66.712 259.295 67.171 258.734 67.171ZM268.936 78V72.73C268.936 70.826 267.899 69.857 266.335 69.857C264.754 69.857 263.666 70.843 263.666 72.849V78H262.119V68.684H263.666V70.01C264.278 69.041 265.4 68.514 266.658 68.514C268.817 68.514 270.466 69.84 270.466 72.509V78H268.936ZM272.415 73.308C272.415 70.401 274.336 68.531 276.835 68.531C278.535 68.531 279.759 69.381 280.303 70.384V68.684H281.867V78.204C281.867 80.771 280.15 82.59 277.413 82.59C274.965 82.59 273.214 81.349 272.908 79.36H274.438C274.778 80.482 275.883 81.247 277.413 81.247C279.062 81.247 280.303 80.193 280.303 78.204V76.249C279.742 77.252 278.535 78.153 276.835 78.153C274.336 78.153 272.415 76.198 272.415 73.308ZM280.303 73.325C280.303 71.166 278.841 69.874 277.141 69.874C275.441 69.874 273.996 71.115 273.996 73.308C273.996 75.501 275.441 76.793 277.141 76.793C278.841 76.793 280.303 75.518 280.303 73.325ZM288.435 73.308C288.435 70.401 290.356 68.531 292.872 68.531C294.334 68.531 295.677 69.279 296.323 70.35V65.42H297.887V78H296.323V76.249C295.762 77.286 294.555 78.153 292.855 78.153C290.356 78.153 288.435 76.198 288.435 73.308ZM296.323 73.325C296.323 71.166 294.861 69.874 293.161 69.874C291.461 69.874 290.016 71.115 290.016 73.308C290.016 75.501 291.461 76.793 293.161 76.793C294.861 76.793 296.323 75.518 296.323 73.325ZM304.462 69.84C302.949 69.84 301.691 70.843 301.521 72.662H307.403C307.42 70.843 306.06 69.84 304.462 69.84ZM308.814 75.127C308.338 76.827 306.842 78.153 304.53 78.153C301.878 78.153 299.923 76.283 299.923 73.325C299.923 70.384 301.81 68.531 304.53 68.531C307.233 68.531 309.001 70.435 309.001 72.985C309.001 73.325 308.984 73.597 308.95 73.92H301.504C301.623 75.807 302.949 76.844 304.53 76.844C305.924 76.844 306.808 76.13 307.148 75.127H308.814ZM317.741 75.467C317.741 76.997 316.398 78.153 314.341 78.153C312.165 78.153 310.635 76.963 310.533 75.263H312.131C312.216 76.164 313.015 76.844 314.324 76.844C315.548 76.844 316.228 76.232 316.228 75.467C316.228 73.393 310.72 74.6 310.72 71.132C310.72 69.704 312.063 68.531 314.137 68.531C316.194 68.531 317.554 69.636 317.656 71.455H316.109C316.041 70.52 315.327 69.84 314.086 69.84C312.947 69.84 312.267 70.384 312.267 71.132C312.267 73.342 317.673 72.135 317.741 75.467ZM320.265 75.45V69.959H319.058V68.684H320.265V66.338H321.812V68.684H324.243V69.959H321.812V75.45C321.812 76.368 322.152 76.691 323.104 76.691H324.243V78H322.849C321.2 78 320.265 77.32 320.265 75.45ZM326.118 78V68.684H327.665V78H326.118ZM326.917 67.171C326.322 67.171 325.863 66.712 325.863 66.117C325.863 65.522 326.322 65.063 326.917 65.063C327.478 65.063 327.937 65.522 327.937 66.117C327.937 66.712 327.478 67.171 326.917 67.171ZM337.118 78V72.73C337.118 70.826 336.081 69.857 334.517 69.857C332.936 69.857 331.848 70.843 331.848 72.849V78H330.301V68.684H331.848V70.01C332.46 69.041 333.582 68.514 334.84 68.514C336.999 68.514 338.648 69.84 338.648 72.509V78H337.118ZM340.597 73.308C340.597 70.401 342.518 68.531 345.017 68.531C346.751 68.531 347.941 69.415 348.485 70.384V68.684H350.049V78H348.485V76.266C347.924 77.269 346.717 78.153 345 78.153C342.518 78.153 340.597 76.198 340.597 73.308ZM348.485 73.325C348.485 71.166 347.023 69.874 345.323 69.874C343.623 69.874 342.178 71.115 342.178 73.308C342.178 75.501 343.623 76.793 345.323 76.793C347.023 76.793 348.485 75.518 348.485 73.325ZM353.003 75.45V69.959H351.796V68.684H353.003V66.338H354.55V68.684H356.981V69.959H354.55V75.45C354.55 76.368 354.89 76.691 355.842 76.691H356.981V78H355.587C353.938 78 353.003 77.32 353.003 75.45ZM358.856 78V68.684H360.403V78H358.856ZM359.655 67.171C359.06 67.171 358.601 66.712 358.601 66.117C358.601 65.522 359.06 65.063 359.655 65.063C360.216 65.063 360.675 65.522 360.675 66.117C360.675 66.712 360.216 67.171 359.655 67.171ZM371.879 73.325C371.879 76.283 369.754 78.153 367.102 78.153C364.467 78.153 362.461 76.283 362.461 73.325C362.461 70.384 364.535 68.531 367.17 68.531C369.822 68.531 371.879 70.384 371.879 73.325ZM364.042 73.325C364.042 75.688 365.487 76.793 367.102 76.793C368.717 76.793 370.298 75.688 370.298 73.325C370.298 70.979 368.751 69.874 367.153 69.874C365.521 69.874 364.042 70.979 364.042 73.325ZM380.73 78V72.73C380.73 70.826 379.693 69.857 378.129 69.857C376.548 69.857 375.46 70.843 375.46 72.849V78H373.913V68.684H375.46V70.01C376.072 69.041 377.194 68.514 378.452 68.514C380.611 68.514 382.26 69.84 382.26 72.509V78H380.73ZM390.867 70.401C391.428 69.415 392.652 68.531 394.352 68.531C396.851 68.531 398.772 70.401 398.772 73.308C398.772 76.198 396.851 78.153 394.352 78.153C392.652 78.153 391.445 77.235 390.867 76.283V82.42H389.32V68.684H390.867V70.401ZM397.191 73.308C397.191 71.115 395.746 69.874 394.029 69.874C392.346 69.874 390.867 71.166 390.867 73.325C390.867 75.518 392.346 76.793 394.029 76.793C395.746 76.793 397.191 75.501 397.191 73.308ZM400.23 73.308C400.23 70.401 402.151 68.531 404.65 68.531C406.384 68.531 407.574 69.415 408.118 70.384V68.684H409.682V78H408.118V76.266C407.557 77.269 406.35 78.153 404.633 78.153C402.151 78.153 400.23 76.198 400.23 73.308ZM408.118 73.325C408.118 71.166 406.656 69.874 404.956 69.874C403.256 69.874 401.811 71.115 401.811 73.308C401.811 75.501 403.256 76.793 404.956 76.793C406.656 76.793 408.118 75.518 408.118 73.325ZM411.718 73.325C411.718 70.401 413.605 68.531 416.257 68.531C418.569 68.531 420.082 69.721 420.558 71.676H418.892C418.569 70.554 417.634 69.84 416.257 69.84C414.557 69.84 413.299 71.047 413.299 73.325C413.299 75.637 414.557 76.844 416.257 76.844C417.634 76.844 418.552 76.181 418.892 75.008H420.558C420.082 76.861 418.569 78.153 416.257 78.153C413.605 78.153 411.718 76.283 411.718 73.325ZM422.622 78V65.42H424.169V72.815L427.756 68.684H429.915L425.529 73.325L429.932 78H427.824L424.169 73.886V78H422.622ZM430.794 73.308C430.794 70.401 432.715 68.531 435.214 68.531C436.948 68.531 438.138 69.415 438.682 70.384V68.684H440.246V78H438.682V76.266C438.121 77.269 436.914 78.153 435.197 78.153C432.715 78.153 430.794 76.198 430.794 73.308ZM438.682 73.325C438.682 71.166 437.22 69.874 435.52 69.874C433.82 69.874 432.375 71.115 432.375 73.308C432.375 75.501 433.82 76.793 435.52 76.793C437.22 76.793 438.682 75.518 438.682 73.325ZM442.282 73.308C442.282 70.401 444.203 68.531 446.702 68.531C448.402 68.531 449.626 69.381 450.17 70.384V68.684H451.734V78.204C451.734 80.771 450.017 82.59 447.28 82.59C444.832 82.59 443.081 81.349 442.775 79.36H444.305C444.645 80.482 445.75 81.247 447.28 81.247C448.929 81.247 450.17 80.193 450.17 78.204V76.249C449.609 77.252 448.402 78.153 446.702 78.153C444.203 78.153 442.282 76.198 442.282 73.308ZM450.17 73.325C450.17 71.166 448.708 69.874 447.008 69.874C445.308 69.874 443.863 71.115 443.863 73.308C443.863 75.501 445.308 76.793 447.008 76.793C448.708 76.793 450.17 75.518 450.17 73.325ZM458.309 69.84C456.796 69.84 455.538 70.843 455.368 72.662H461.25C461.267 70.843 459.907 69.84 458.309 69.84ZM462.661 75.127C462.185 76.827 460.689 78.153 458.377 78.153C455.725 78.153 453.77 76.283 453.77 73.325C453.77 70.384 455.657 68.531 458.377 68.531C461.08 68.531 462.848 70.435 462.848 72.985C462.848 73.325 462.831 73.597 462.797 73.92H455.351C455.47 75.807 456.796 76.844 458.377 76.844C459.771 76.844 460.655 76.13 460.995 75.127H462.661ZM473.383 69.84C471.87 69.84 470.612 70.843 470.442 72.662H476.324C476.341 70.843 474.981 69.84 473.383 69.84ZM477.735 75.127C477.259 76.827 475.763 78.153 473.451 78.153C470.799 78.153 468.844 76.283 468.844 73.325C468.844 70.384 470.731 68.531 473.451 68.531C476.154 68.531 477.922 70.435 477.922 72.985C477.922 73.325 477.905 73.597 477.871 73.92H470.425C470.544 75.807 471.87 76.844 473.451 76.844C474.845 76.844 475.729 76.13 476.069 75.127H477.735ZM484.826 78L482.616 74.532L480.491 78H478.876L481.885 73.376L478.876 68.684H480.627L482.837 72.135L484.945 68.684H486.56L483.568 73.291L486.577 78H484.826ZM489.646 70.401C490.207 69.415 491.431 68.531 493.131 68.531C495.63 68.531 497.551 70.401 497.551 73.308C497.551 76.198 495.63 78.153 493.131 78.153C491.431 78.153 490.224 77.235 489.646 76.283V82.42H488.099V68.684H489.646V70.401ZM495.97 73.308C495.97 71.115 494.525 69.874 492.808 69.874C491.125 69.874 489.646 71.166 489.646 73.325C489.646 75.518 491.125 76.793 492.808 76.793C494.525 76.793 495.97 75.501 495.97 73.308ZM503.548 69.84C502.035 69.84 500.777 70.843 500.607 72.662H506.489C506.506 70.843 505.146 69.84 503.548 69.84ZM507.9 75.127C507.424 76.827 505.928 78.153 503.616 78.153C500.964 78.153 499.009 76.283 499.009 73.325C499.009 70.384 500.896 68.531 503.616 68.531C506.319 68.531 508.087 70.435 508.087 72.985C508.087 73.325 508.07 73.597 508.036 73.92H500.59C500.709 75.807 502.035 76.844 503.616 76.844C505.01 76.844 505.894 76.13 506.234 75.127H507.9ZM511.676 72.934V78H510.129V68.684H511.676V70.197C512.203 69.16 513.206 68.514 514.685 68.514V70.112H514.277C512.798 70.112 511.676 70.775 511.676 72.934ZM516.471 78V68.684H518.018V78H516.471ZM517.27 67.171C516.675 67.171 516.216 66.712 516.216 66.117C516.216 65.522 516.675 65.063 517.27 65.063C517.831 65.063 518.29 65.522 518.29 66.117C518.29 66.712 517.831 67.171 517.27 67.171ZM524.616 69.84C523.103 69.84 521.845 70.843 521.675 72.662H527.557C527.574 70.843 526.214 69.84 524.616 69.84ZM528.968 75.127C528.492 76.827 526.996 78.153 524.684 78.153C522.032 78.153 520.077 76.283 520.077 73.325C520.077 70.384 521.964 68.531 524.684 68.531C527.387 68.531 529.155 70.435 529.155 72.985C529.155 73.325 529.138 73.597 529.104 73.92H521.658C521.777 75.807 523.103 76.844 524.684 76.844C526.078 76.844 526.962 76.13 527.302 75.127H528.968ZM538.014 78V72.73C538.014 70.826 536.977 69.857 535.413 69.857C533.832 69.857 532.744 70.843 532.744 72.849V78H531.197V68.684H532.744V70.01C533.356 69.041 534.478 68.514 535.736 68.514C537.895 68.514 539.544 69.84 539.544 72.509V78H538.014ZM541.493 73.325C541.493 70.401 543.38 68.531 546.032 68.531C548.344 68.531 549.857 69.721 550.333 71.676H548.667C548.344 70.554 547.409 69.84 546.032 69.84C544.332 69.84 543.074 71.047 543.074 73.325C543.074 75.637 544.332 76.844 546.032 76.844C547.409 76.844 548.327 76.181 548.667 75.008H550.333C549.857 76.861 548.344 78.153 546.032 78.153C543.38 78.153 541.493 76.283 541.493 73.325ZM556.358 69.84C554.845 69.84 553.587 70.843 553.417 72.662H559.299C559.316 70.843 557.956 69.84 556.358 69.84ZM560.71 75.127C560.234 76.827 558.738 78.153 556.426 78.153C553.774 78.153 551.819 76.283 551.819 73.325C551.819 70.384 553.706 68.531 556.426 68.531C559.129 68.531 560.897 70.435 560.897 72.985C560.897 73.325 560.88 73.597 560.846 73.92H553.4C553.519 75.807 554.845 76.844 556.426 76.844C557.82 76.844 558.704 76.13 559.044 75.127H560.71ZM566.893 73.308C566.893 70.401 568.814 68.531 571.313 68.531C573.047 68.531 574.237 69.415 574.781 70.384V68.684H576.345V78H574.781V76.266C574.22 77.269 573.013 78.153 571.296 78.153C568.814 78.153 566.893 76.198 566.893 73.308ZM574.781 73.325C574.781 71.166 573.319 69.874 571.619 69.874C569.919 69.874 568.474 71.115 568.474 73.308C568.474 75.501 569.919 76.793 571.619 76.793C573.319 76.793 574.781 75.518 574.781 73.325ZM585.776 78V72.73C585.776 70.826 584.739 69.857 583.175 69.857C581.594 69.857 580.506 70.843 580.506 72.849V78H578.959V68.684H580.506V70.01C581.118 69.041 582.24 68.514 583.498 68.514C585.657 68.514 587.306 69.84 587.306 72.509V78H585.776ZM589.255 73.308C589.255 70.401 591.176 68.531 593.692 68.531C595.154 68.531 596.497 69.279 597.143 70.35V65.42H598.707V78H597.143V76.249C596.582 77.286 595.375 78.153 593.675 78.153C591.176 78.153 589.255 76.198 589.255 73.308ZM597.143 73.325C597.143 71.166 595.681 69.874 593.981 69.874C592.281 69.874 590.836 71.115 590.836 73.308C590.836 75.501 592.281 76.793 593.981 76.793C595.681 76.793 597.143 75.518 597.143 73.325ZM612.552 75.467C612.552 76.997 611.209 78.153 609.152 78.153C606.976 78.153 605.446 76.963 605.344 75.263H606.942C607.027 76.164 607.826 76.844 609.135 76.844C610.359 76.844 611.039 76.232 611.039 75.467C611.039 73.393 605.531 74.6 605.531 71.132C605.531 69.704 606.874 68.531 608.948 68.531C611.005 68.531 612.365 69.636 612.467 71.455H610.92C610.852 70.52 610.138 69.84 608.897 69.84C607.758 69.84 607.078 70.384 607.078 71.132C607.078 73.342 612.484 72.135 612.552 75.467ZM614.736 78V65.42H616.283V70.027C616.895 69.041 618.051 68.514 619.36 68.514C621.434 68.514 623.083 69.84 623.083 72.509V78H621.553V72.73C621.553 70.826 620.516 69.857 618.952 69.857C617.371 69.857 616.283 70.843 616.283 72.849V78H614.736ZM625.032 73.308C625.032 70.401 626.953 68.531 629.452 68.531C631.186 68.531 632.376 69.415 632.92 70.384V68.684H634.484V78H632.92V76.266C632.359 77.269 631.152 78.153 629.435 78.153C626.953 78.153 625.032 76.198 625.032 73.308ZM632.92 73.325C632.92 71.166 631.458 69.874 629.758 69.874C628.058 69.874 626.613 71.115 626.613 73.308C626.613 75.501 628.058 76.793 629.758 76.793C631.458 76.793 632.92 75.518 632.92 73.325ZM638.645 72.934V78H637.098V68.684H638.645V70.197C639.172 69.16 640.175 68.514 641.654 68.514V70.112H641.246C639.767 70.112 638.645 70.775 638.645 72.934ZM647.401 69.84C645.888 69.84 644.63 70.843 644.46 72.662H650.342C650.359 70.843 648.999 69.84 647.401 69.84ZM651.753 75.127C651.277 76.827 649.781 78.153 647.469 78.153C644.817 78.153 642.862 76.283 642.862 73.325C642.862 70.384 644.749 68.531 647.469 68.531C650.172 68.531 651.94 70.435 651.94 72.985C651.94 73.325 651.923 73.597 651.889 73.92H644.443C644.562 75.807 645.888 76.844 647.469 76.844C648.863 76.844 649.747 76.13 650.087 75.127H651.753ZM658.854 75.45V69.959H657.647V68.684H658.854V66.338H660.401V68.684H662.832V69.959H660.401V75.45C660.401 76.368 660.741 76.691 661.693 76.691H662.832V78H661.438C659.789 78 658.854 77.32 658.854 75.45ZM664.706 78V65.42H666.253V70.027C666.865 69.041 668.021 68.514 669.33 68.514C671.404 68.514 673.053 69.84 673.053 72.509V78H671.523V72.73C671.523 70.826 670.486 69.857 668.922 69.857C667.341 69.857 666.253 70.843 666.253 72.849V78H664.706ZM679.541 69.84C678.028 69.84 676.77 70.843 676.6 72.662H682.482C682.499 70.843 681.139 69.84 679.541 69.84ZM683.893 75.127C683.417 76.827 681.921 78.153 679.609 78.153C676.957 78.153 675.002 76.283 675.002 73.325C675.002 70.384 676.889 68.531 679.609 68.531C682.312 68.531 684.08 70.435 684.08 72.985C684.08 73.325 684.063 73.597 684.029 73.92H676.583C676.702 75.807 678.028 76.844 679.609 76.844C681.003 76.844 681.887 76.13 682.227 75.127H683.893ZM691.488 67.171C690.91 67.171 690.451 66.712 690.451 66.117C690.451 65.522 690.91 65.063 691.488 65.063C692.066 65.063 692.525 65.522 692.525 66.117C692.525 66.712 692.066 67.171 691.488 67.171ZM690.706 68.684H692.253V80.023C692.253 81.706 691.369 82.42 689.788 82.42H688.887V81.111H689.533C690.383 81.111 690.706 80.805 690.706 79.989V68.684ZM703.712 73.325C703.712 76.283 701.587 78.153 698.935 78.153C696.3 78.153 694.294 76.283 694.294 73.325C694.294 70.384 696.368 68.531 699.003 68.531C701.655 68.531 703.712 70.384 703.712 73.325ZM695.875 73.325C695.875 75.688 697.32 76.793 698.935 76.793C700.55 76.793 702.131 75.688 702.131 73.325C702.131 70.979 700.584 69.874 698.986 69.874C697.354 69.874 695.875 70.979 695.875 73.325ZM709.282 76.232L712.172 68.684H713.77L708.16 82.386H706.562L708.398 77.898L704.641 68.684H706.358L709.282 76.232ZM715.852 74.651L715.665 66.151H717.331L717.144 74.651H715.852ZM717.586 77.048C717.586 77.643 717.127 78.102 716.566 78.102C715.971 78.102 715.512 77.643 715.512 77.048C715.512 76.453 715.971 75.994 716.566 75.994C717.127 75.994 717.586 76.453 717.586 77.048Z" fill="#81B29A"/>
</svg>
