<svg width="747" height="106" viewBox="0 0 747 106" fill="none" xmlns="http://www.w3.org/2000/svg">
<rect width="747" height="106" rx="20" fill="white"/>
<path d="M65 21.333C82.489 21.333 96.667 35.511 96.667 53C96.667 70.489 82.489 84.667 65 84.667C47.511 84.667 33.333 70.489 33.333 53C33.333 35.511 47.511 21.333 65 21.333ZM56.1709 36.8828C55.8528 36.7209 55.4772 36.9376 55.458 37.2939C55.2811 40.6354 54.7063 54.1697 56.7734 57.75C58.8414 61.3304 70.848 67.5988 73.8301 69.1162C74.1482 69.2781 74.5239 69.0615 74.543 68.7051C74.7199 65.3638 75.2944 51.8309 73.2275 48.25C71.1605 44.6698 59.1537 38.4006 56.1709 36.8828Z" fill="#E07A5F"/>
<path d="M134.475 31.6V33.925H127.725V39.025H133.725V41.35H127.725V46.675H134.475V49H124.875V31.6H134.475ZM145.11 49L142.135 44.325L139.335 49H136.36L140.81 42.225L136.36 35.225H139.585L142.56 39.9L145.36 35.225H148.335L143.885 42.025L148.335 49H145.11ZM153.311 37.25C154.186 36.1 155.861 35 158.111 35C161.736 35 164.586 37.8 164.586 42.05C164.586 46.3 161.736 49.225 158.111 49.225C155.836 49.225 154.211 48.075 153.311 47V55.55H150.461V35.225H153.311V37.25ZM161.686 42.05C161.686 39.075 159.636 37.475 157.486 37.475C155.361 37.475 153.311 39.15 153.311 42.1C153.311 45.075 155.361 46.75 157.486 46.75C159.636 46.75 161.686 45.025 161.686 42.05ZM167.404 49V30.5H170.254V49H167.404ZM187.121 42.1C187.121 46.425 183.921 49.225 179.971 49.225C176.046 49.225 173.071 46.425 173.071 42.1C173.071 37.775 176.171 35 180.096 35C184.021 35 187.121 37.775 187.121 42.1ZM175.971 42.1C175.971 45.225 177.821 46.75 179.971 46.75C182.096 46.75 184.196 45.225 184.196 42.1C184.196 38.975 182.171 37.475 180.046 37.475C177.896 37.475 175.971 38.975 175.971 42.1ZM192.788 41.75V49H189.938V35.225H192.788V37.225C193.588 35.85 194.963 35 196.913 35V37.95H196.188C194.088 37.95 192.788 38.825 192.788 41.75ZM205.333 37.4C203.408 37.4 201.858 38.7 201.558 40.875H209.183C209.133 38.75 207.458 37.4 205.333 37.4ZM211.783 44.9C211.008 47.3 208.833 49.225 205.458 49.225C201.508 49.225 198.583 46.425 198.583 42.1C198.583 37.775 201.383 35 205.458 35C209.383 35 212.158 37.725 212.158 41.775C212.158 42.25 212.133 42.7 212.058 43.175H201.533C201.733 45.45 203.358 46.825 205.458 46.825C207.208 46.825 208.183 45.975 208.708 44.9H211.783ZM221.457 49V30.5H224.307V49H221.457ZM228.049 49V35.225H230.899V49H228.049ZM229.499 33.4C228.474 33.4 227.674 32.6 227.674 31.575C227.674 30.55 228.474 29.75 229.499 29.75C230.499 29.75 231.299 30.55 231.299 31.575C231.299 32.6 230.499 33.4 229.499 33.4ZM244.916 45.15C244.916 47.475 242.891 49.225 239.641 49.225C236.341 49.225 234.016 47.275 233.891 44.775H236.841C236.941 45.9 238.016 46.825 239.591 46.825C241.241 46.825 242.116 46.125 242.116 45.175C242.116 42.475 234.116 44.025 234.116 38.975C234.116 36.775 236.166 35 239.416 35C242.541 35 244.591 36.675 244.741 39.425H241.891C241.791 38.225 240.866 37.4 239.316 37.4C237.791 37.4 236.991 38.025 236.991 38.95C236.991 41.725 244.766 40.175 244.916 45.15ZM248.445 45.175V37.55H246.82V35.225H248.445V31.8H251.32V35.225H254.67V37.55H251.32V45.175C251.32 46.2 251.72 46.625 252.92 46.625H254.67V49H252.42C249.97 49 248.445 47.975 248.445 45.175ZM276.916 42.1C276.916 46.425 273.716 49.225 269.766 49.225C265.841 49.225 262.866 46.425 262.866 42.1C262.866 37.775 265.966 35 269.891 35C273.816 35 276.916 37.775 276.916 42.1ZM265.766 42.1C265.766 45.225 267.616 46.75 269.766 46.75C271.891 46.75 273.991 45.225 273.991 42.1C273.991 38.975 271.966 37.475 269.841 37.475C267.691 37.475 265.766 38.975 265.766 42.1ZM280.083 49V37.55H278.458V35.225H280.083V34.25C280.083 31.075 281.708 29.7 285.308 29.7V32.075C283.558 32.075 282.958 32.675 282.958 34.25V35.225H285.508V37.55H282.958V49H280.083ZM293.578 42.05C293.578 37.8 296.453 35 300.103 35C301.903 35 303.803 35.85 304.853 37.15V30.5H307.728V49H304.853V46.925C303.978 48.175 302.328 49.225 300.078 49.225C296.453 49.225 293.578 46.3 293.578 42.05ZM304.853 42.1C304.853 39.15 302.828 37.475 300.678 37.475C298.553 37.475 296.503 39.075 296.503 42.05C296.503 45.025 298.553 46.75 300.678 46.75C302.828 46.75 304.853 45.075 304.853 42.1ZM317.272 37.4C315.347 37.4 313.797 38.7 313.497 40.875H321.122C321.072 38.75 319.397 37.4 317.272 37.4ZM323.722 44.9C322.947 47.3 320.772 49.225 317.397 49.225C313.447 49.225 310.522 46.425 310.522 42.1C310.522 37.775 313.322 35 317.397 35C321.322 35 324.097 37.725 324.097 41.775C324.097 42.25 324.072 42.7 323.997 43.175H313.472C313.672 45.45 315.297 46.825 317.397 46.825C319.147 46.825 320.122 45.975 320.647 44.9H323.722ZM337.176 45.15C337.176 47.475 335.151 49.225 331.901 49.225C328.601 49.225 326.276 47.275 326.151 44.775H329.101C329.201 45.9 330.276 46.825 331.851 46.825C333.501 46.825 334.376 46.125 334.376 45.175C334.376 42.475 326.376 44.025 326.376 38.975C326.376 36.775 328.426 35 331.676 35C334.801 35 336.851 36.675 337.001 39.425H334.151C334.051 38.225 333.126 37.4 331.576 37.4C330.051 37.4 329.251 38.025 329.251 38.95C329.251 41.725 337.026 40.175 337.176 45.15ZM340.706 45.175V37.55H339.081V35.225H340.706V31.8H343.581V35.225H346.931V37.55H343.581V45.175C343.581 46.2 343.981 46.625 345.181 46.625H346.931V49H344.681C342.231 49 340.706 47.975 340.706 45.175ZM349.558 49V35.225H352.408V49H349.558ZM351.008 33.4C349.983 33.4 349.183 32.6 349.183 31.575C349.183 30.55 349.983 29.75 351.008 29.75C352.008 29.75 352.808 30.55 352.808 31.575C352.808 32.6 352.008 33.4 351.008 33.4ZM365.924 49V41.3C365.924 38.775 364.549 37.475 362.474 37.475C360.374 37.475 358.999 38.775 358.999 41.3V49H356.149V35.225H358.999V36.8C359.924 35.675 361.449 35 363.099 35C366.324 35 368.749 37.025 368.749 40.875V49H365.924ZM371.435 42.05C371.435 37.8 374.31 35 377.935 35C380.26 35 381.86 36.1 382.71 37.225V35.225H385.585V49H382.71V46.95C381.835 48.125 380.185 49.225 377.885 49.225C374.31 49.225 371.435 46.3 371.435 42.05ZM382.71 42.1C382.71 39.15 380.685 37.475 378.535 37.475C376.41 37.475 374.36 39.075 374.36 42.05C374.36 45.025 376.41 46.75 378.535 46.75C380.685 46.75 382.71 45.075 382.71 42.1ZM389.778 45.175V37.55H388.153V35.225H389.778V31.8H392.653V35.225H396.003V37.55H392.653V45.175C392.653 46.2 393.053 46.625 394.253 46.625H396.003V49H393.753C391.303 49 389.778 47.975 389.778 45.175ZM398.63 49V35.225H401.48V49H398.63ZM400.08 33.4C399.055 33.4 398.255 32.6 398.255 31.575C398.255 30.55 399.055 29.75 400.08 29.75C401.08 29.75 401.88 30.55 401.88 31.575C401.88 32.6 401.08 33.4 400.08 33.4ZM418.347 42.1C418.347 46.425 415.147 49.225 411.197 49.225C407.272 49.225 404.297 46.425 404.297 42.1C404.297 37.775 407.397 35 411.322 35C415.247 35 418.347 37.775 418.347 42.1ZM407.197 42.1C407.197 45.225 409.047 46.75 411.197 46.75C413.322 46.75 415.422 45.225 415.422 42.1C415.422 38.975 413.397 37.475 411.272 37.475C409.122 37.475 407.197 38.975 407.197 42.1ZM430.939 49V41.3C430.939 38.775 429.564 37.475 427.489 37.475C425.389 37.475 424.014 38.775 424.014 41.3V49H421.164V35.225H424.014V36.8C424.939 35.675 426.464 35 428.114 35C431.339 35 433.764 37.025 433.764 40.875V49H430.939ZM447.674 45.15C447.674 47.475 445.649 49.225 442.399 49.225C439.099 49.225 436.774 47.275 436.649 44.775H439.599C439.699 45.9 440.774 46.825 442.349 46.825C443.999 46.825 444.874 46.125 444.874 45.175C444.874 42.475 436.874 44.025 436.874 38.975C436.874 36.775 438.924 35 442.174 35C445.299 35 447.349 36.675 447.499 39.425H444.649C444.549 38.225 443.624 37.4 442.074 37.4C440.549 37.4 439.749 38.025 439.749 38.95C439.749 41.725 447.524 40.175 447.674 45.15ZM457.248 49V35.225H460.098V49H457.248ZM458.698 33.4C457.673 33.4 456.873 32.6 456.873 31.575C456.873 30.55 457.673 29.75 458.698 29.75C459.698 29.75 460.498 30.55 460.498 31.575C460.498 32.6 459.698 33.4 458.698 33.4ZM473.615 49V41.3C473.615 38.775 472.24 37.475 470.165 37.475C468.065 37.475 466.69 38.775 466.69 41.3V49H463.84V35.225H466.69V36.8C467.615 35.675 469.14 35 470.79 35C474.015 35 476.44 37.025 476.44 40.875V49H473.615ZM499.694 42.1C499.694 46.425 496.494 49.225 492.544 49.225C488.619 49.225 485.644 46.425 485.644 42.1C485.644 37.775 488.744 35 492.669 35C496.594 35 499.694 37.775 499.694 42.1ZM488.544 42.1C488.544 45.225 490.394 46.75 492.544 46.75C494.669 46.75 496.769 45.225 496.769 42.1C496.769 38.975 494.744 37.475 492.619 37.475C490.469 37.475 488.544 38.975 488.544 42.1ZM512.287 49V41.3C512.287 38.775 510.912 37.475 508.837 37.475C506.737 37.475 505.362 38.775 505.362 41.3V49H502.512V35.225H505.362V36.8C506.287 35.675 507.812 35 509.462 35C512.687 35 515.112 37.025 515.112 40.875V49H512.287ZM524.547 37.4C522.622 37.4 521.072 38.7 520.772 40.875H528.397C528.347 38.75 526.672 37.4 524.547 37.4ZM530.997 44.9C530.222 47.3 528.047 49.225 524.672 49.225C520.722 49.225 517.797 46.425 517.797 42.1C517.797 37.775 520.597 35 524.672 35C528.597 35 531.372 37.725 531.372 41.775C531.372 42.25 531.347 42.7 531.272 43.175H520.747C520.947 45.45 522.572 46.825 524.672 46.825C526.422 46.825 527.397 45.975 527.922 44.9H530.997ZM539.721 42.1C539.721 37.8 542.521 35 546.471 35C549.846 35 552.046 36.675 552.821 39.575H549.746C549.271 38.25 548.171 37.4 546.471 37.4C544.171 37.4 542.646 39.1 542.646 42.1C542.646 45.125 544.171 46.825 546.471 46.825C548.171 46.825 549.221 46.075 549.746 44.65H552.821C552.046 47.35 549.846 49.225 546.471 49.225C542.521 49.225 539.721 46.425 539.721 42.1ZM555.661 49V30.5H558.511V49H555.661ZM562.253 49V35.225H565.103V49H562.253ZM563.703 33.4C562.678 33.4 561.878 32.6 561.878 31.575C561.878 30.55 562.678 29.75 563.703 29.75C564.703 29.75 565.503 30.55 565.503 31.575C565.503 32.6 564.703 33.4 563.703 33.4ZM567.895 42.1C567.895 37.8 570.695 35 574.645 35C578.02 35 580.22 36.675 580.995 39.575H577.92C577.445 38.25 576.345 37.4 574.645 37.4C572.345 37.4 570.82 39.1 570.82 42.1C570.82 45.125 572.345 46.825 574.645 46.825C576.345 46.825 577.395 46.075 577.92 44.65H580.995C580.22 47.35 578.02 49.225 574.645 49.225C570.695 49.225 567.895 46.425 567.895 42.1ZM583.835 49V30.5H586.685V41.25L591.685 35.225H595.635L589.285 42.125L595.635 49H591.785L586.685 43.075V49H583.835Z" fill="#3E6652"/>
<path d="M124.309 66.151H125.856V76.742H130.004V78H124.309V66.151ZM140.487 73.325C140.487 76.283 138.362 78.153 135.71 78.153C133.075 78.153 131.069 76.283 131.069 73.325C131.069 70.384 133.143 68.531 135.778 68.531C138.43 68.531 140.487 70.384 140.487 73.325ZM132.65 73.325C132.65 75.688 134.095 76.793 135.71 76.793C137.325 76.793 138.906 75.688 138.906 73.325C138.906 70.979 137.359 69.874 135.761 69.874C134.129 69.874 132.65 70.979 132.65 73.325ZM151.361 73.325C151.361 76.283 149.236 78.153 146.584 78.153C143.949 78.153 141.943 76.283 141.943 73.325C141.943 70.384 144.017 68.531 146.652 68.531C149.304 68.531 151.361 70.384 151.361 73.325ZM143.524 73.325C143.524 75.688 144.969 76.793 146.584 76.793C148.199 76.793 149.78 75.688 149.78 73.325C149.78 70.979 148.233 69.874 146.635 69.874C145.003 69.874 143.524 70.979 143.524 73.325ZM153.395 78V65.42H154.942V72.815L158.529 68.684H160.688L156.302 73.325L160.705 78H158.597L154.942 73.886V78H153.395ZM166.098 73.308C166.098 70.401 168.019 68.531 170.518 68.531C172.252 68.531 173.442 69.415 173.986 70.384V68.684H175.55V78H173.986V76.266C173.425 77.269 172.218 78.153 170.501 78.153C168.019 78.153 166.098 76.198 166.098 73.308ZM173.986 73.325C173.986 71.166 172.524 69.874 170.824 69.874C169.124 69.874 167.679 71.115 167.679 73.308C167.679 75.501 169.124 76.793 170.824 76.793C172.524 76.793 173.986 75.518 173.986 73.325ZM178.504 75.45V69.959H177.297V68.684H178.504V66.338H180.051V68.684H182.482V69.959H180.051V75.45C180.051 76.368 180.391 76.691 181.343 76.691H182.482V78H181.088C179.439 78 178.504 77.32 178.504 75.45ZM197.729 73.325C197.729 76.283 195.604 78.153 192.952 78.153C190.317 78.153 188.311 76.283 188.311 73.325C188.311 70.384 190.385 68.531 193.02 68.531C195.672 68.531 197.729 70.384 197.729 73.325ZM189.892 73.325C189.892 75.688 191.337 76.793 192.952 76.793C194.567 76.793 196.148 75.688 196.148 73.325C196.148 70.979 194.601 69.874 193.003 69.874C191.371 69.874 189.892 70.979 189.892 73.325ZM200.103 75.45V69.959H198.896V68.684H200.103V66.338H201.65V68.684H204.081V69.959H201.65V75.45C201.65 76.368 201.99 76.691 202.942 76.691H204.081V78H202.687C201.038 78 200.103 77.32 200.103 75.45ZM205.955 78V65.42H207.502V70.027C208.114 69.041 209.27 68.514 210.579 68.514C212.653 68.514 214.302 69.84 214.302 72.509V78H212.772V72.73C212.772 70.826 211.735 69.857 210.171 69.857C208.59 69.857 207.502 70.843 207.502 72.849V78H205.955ZM220.791 69.84C219.278 69.84 218.02 70.843 217.85 72.662H223.732C223.749 70.843 222.389 69.84 220.791 69.84ZM225.143 75.127C224.667 76.827 223.171 78.153 220.859 78.153C218.207 78.153 216.252 76.283 216.252 73.325C216.252 70.384 218.139 68.531 220.859 68.531C223.562 68.531 225.33 70.435 225.33 72.985C225.33 73.325 225.313 73.597 225.279 73.92H217.833C217.952 75.807 219.278 76.844 220.859 76.844C222.253 76.844 223.137 76.13 223.477 75.127H225.143ZM228.919 72.934V78H227.372V68.684H228.919V70.197C229.446 69.16 230.449 68.514 231.928 68.514V70.112H231.52C230.041 70.112 228.919 70.775 228.919 72.934ZM238.586 75.45V69.959H237.379V68.684H238.586V66.338H240.133V68.684H242.564V69.959H240.133V75.45C240.133 76.368 240.473 76.691 241.425 76.691H242.564V78H241.17C239.521 78 238.586 77.32 238.586 75.45ZM245.985 72.934V78H244.438V68.684H245.985V70.197C246.512 69.16 247.515 68.514 248.994 68.514V70.112H248.586C247.107 70.112 245.985 70.775 245.985 72.934ZM250.202 73.308C250.202 70.401 252.123 68.531 254.622 68.531C256.356 68.531 257.546 69.415 258.09 70.384V68.684H259.654V78H258.09V76.266C257.529 77.269 256.322 78.153 254.605 78.153C252.123 78.153 250.202 76.198 250.202 73.308ZM258.09 73.325C258.09 71.166 256.628 69.874 254.928 69.874C253.228 69.874 251.783 71.115 251.783 73.308C251.783 75.501 253.228 76.793 254.928 76.793C256.628 76.793 258.09 75.518 258.09 73.325ZM261.163 68.684H262.829L265.736 76.572L268.626 68.684H270.275L266.62 78H264.818L261.163 68.684ZM275.758 69.84C274.245 69.84 272.987 70.843 272.817 72.662H278.699C278.716 70.843 277.356 69.84 275.758 69.84ZM280.11 75.127C279.634 76.827 278.138 78.153 275.826 78.153C273.174 78.153 271.219 76.283 271.219 73.325C271.219 70.384 273.106 68.531 275.826 68.531C278.529 68.531 280.297 70.435 280.297 72.985C280.297 73.325 280.28 73.597 280.246 73.92H272.8C272.919 75.807 274.245 76.844 275.826 76.844C277.22 76.844 278.104 76.13 278.444 75.127H280.11ZM282.339 78V65.42H283.886V78H282.339ZM286.523 78V65.42H288.07V78H286.523ZM294.667 69.84C293.154 69.84 291.896 70.843 291.726 72.662H297.608C297.625 70.843 296.265 69.84 294.667 69.84ZM299.019 75.127C298.543 76.827 297.047 78.153 294.735 78.153C292.083 78.153 290.128 76.283 290.128 73.325C290.128 70.384 292.015 68.531 294.735 68.531C297.438 68.531 299.206 70.435 299.206 72.985C299.206 73.325 299.189 73.597 299.155 73.92H291.709C291.828 75.807 293.154 76.844 294.735 76.844C296.129 76.844 297.013 76.13 297.353 75.127H299.019ZM302.795 72.934V78H301.248V68.684H302.795V70.197C303.322 69.16 304.325 68.514 305.804 68.514V70.112H305.396C303.917 70.112 302.795 70.775 302.795 72.934ZM314.288 75.467C314.288 76.997 312.945 78.153 310.888 78.153C308.712 78.153 307.182 76.963 307.08 75.263H308.678C308.763 76.164 309.562 76.844 310.871 76.844C312.095 76.844 312.775 76.232 312.775 75.467C312.775 73.393 307.267 74.6 307.267 71.132C307.267 69.704 308.61 68.531 310.684 68.531C312.741 68.531 314.101 69.636 314.203 71.455H312.656C312.588 70.52 311.874 69.84 310.633 69.84C309.494 69.84 308.814 70.384 308.814 71.132C308.814 73.342 314.22 72.135 314.288 75.467ZM316.795 70.01H315.707L316.71 66.151H318.427L316.795 70.01ZM324.145 73.308C324.145 70.401 326.066 68.531 328.582 68.531C330.044 68.531 331.387 69.279 332.033 70.35V65.42H333.597V78H332.033V76.249C331.472 77.286 330.265 78.153 328.565 78.153C326.066 78.153 324.145 76.198 324.145 73.308ZM332.033 73.325C332.033 71.166 330.571 69.874 328.871 69.874C327.171 69.874 325.726 71.115 325.726 73.308C325.726 75.501 327.171 76.793 328.871 76.793C330.571 76.793 332.033 75.518 332.033 73.325ZM340.172 69.84C338.659 69.84 337.401 70.843 337.231 72.662H343.113C343.13 70.843 341.77 69.84 340.172 69.84ZM344.524 75.127C344.048 76.827 342.552 78.153 340.24 78.153C337.588 78.153 335.633 76.283 335.633 73.325C335.633 70.384 337.52 68.531 340.24 68.531C342.943 68.531 344.711 70.435 344.711 72.985C344.711 73.325 344.694 73.597 344.66 73.92H337.214C337.333 75.807 338.659 76.844 340.24 76.844C341.634 76.844 342.518 76.13 342.858 75.127H344.524ZM353.451 75.467C353.451 76.997 352.108 78.153 350.051 78.153C347.875 78.153 346.345 76.963 346.243 75.263H347.841C347.926 76.164 348.725 76.844 350.034 76.844C351.258 76.844 351.938 76.232 351.938 75.467C351.938 73.393 346.43 74.6 346.43 71.132C346.43 69.704 347.773 68.531 349.847 68.531C351.904 68.531 353.264 69.636 353.366 71.455H351.819C351.751 70.52 351.037 69.84 349.796 69.84C348.657 69.84 347.977 70.384 347.977 71.132C347.977 73.342 353.383 72.135 353.451 75.467ZM355.975 75.45V69.959H354.768V68.684H355.975V66.338H357.522V68.684H359.953V69.959H357.522V75.45C357.522 76.368 357.862 76.691 358.814 76.691H359.953V78H358.559C356.91 78 355.975 77.32 355.975 75.45ZM361.828 78V68.684H363.375V78H361.828ZM362.627 67.171C362.032 67.171 361.573 66.712 361.573 66.117C361.573 65.522 362.032 65.063 362.627 65.063C363.188 65.063 363.647 65.522 363.647 66.117C363.647 66.712 363.188 67.171 362.627 67.171ZM372.828 78V72.73C372.828 70.826 371.791 69.857 370.227 69.857C368.646 69.857 367.558 70.843 367.558 72.849V78H366.011V68.684H367.558V70.01C368.17 69.041 369.292 68.514 370.55 68.514C372.709 68.514 374.358 69.84 374.358 72.509V78H372.828ZM376.307 73.308C376.307 70.401 378.228 68.531 380.727 68.531C382.461 68.531 383.651 69.415 384.195 70.384V68.684H385.759V78H384.195V76.266C383.634 77.269 382.427 78.153 380.71 78.153C378.228 78.153 376.307 76.198 376.307 73.308ZM384.195 73.325C384.195 71.166 382.733 69.874 381.033 69.874C379.333 69.874 377.888 71.115 377.888 73.308C377.888 75.501 379.333 76.793 381.033 76.793C382.733 76.793 384.195 75.518 384.195 73.325ZM388.713 75.45V69.959H387.506V68.684H388.713V66.338H390.26V68.684H392.691V69.959H390.26V75.45C390.26 76.368 390.6 76.691 391.552 76.691H392.691V78H391.297C389.648 78 388.713 77.32 388.713 75.45ZM394.566 78V68.684H396.113V78H394.566ZM395.365 67.171C394.77 67.171 394.311 66.712 394.311 66.117C394.311 65.522 394.77 65.063 395.365 65.063C395.926 65.063 396.385 65.522 396.385 66.117C396.385 66.712 395.926 67.171 395.365 67.171ZM407.589 73.325C407.589 76.283 405.464 78.153 402.812 78.153C400.177 78.153 398.171 76.283 398.171 73.325C398.171 70.384 400.245 68.531 402.88 68.531C405.532 68.531 407.589 70.384 407.589 73.325ZM399.752 73.325C399.752 75.688 401.197 76.793 402.812 76.793C404.427 76.793 406.008 75.688 406.008 73.325C406.008 70.979 404.461 69.874 402.863 69.874C401.231 69.874 399.752 70.979 399.752 73.325ZM416.44 78V72.73C416.44 70.826 415.403 69.857 413.839 69.857C412.258 69.857 411.17 70.843 411.17 72.849V78H409.623V68.684H411.17V70.01C411.782 69.041 412.904 68.514 414.162 68.514C416.321 68.514 417.97 69.84 417.97 72.509V78H416.44ZM427.195 75.467C427.195 76.997 425.852 78.153 423.795 78.153C421.619 78.153 420.089 76.963 419.987 75.263H421.585C421.67 76.164 422.469 76.844 423.778 76.844C425.002 76.844 425.682 76.232 425.682 75.467C425.682 73.393 420.174 74.6 420.174 71.132C420.174 69.704 421.517 68.531 423.591 68.531C425.648 68.531 427.008 69.636 427.11 71.455H425.563C425.495 70.52 424.781 69.84 423.54 69.84C422.401 69.84 421.721 70.384 421.721 71.132C421.721 73.342 427.127 72.135 427.195 75.467ZM433.912 78V65.42H435.459V78H433.912ZM438.095 78V68.684H439.642V78H438.095ZM438.894 67.171C438.299 67.171 437.84 66.712 437.84 66.117C437.84 65.522 438.299 65.063 438.894 65.063C439.455 65.063 439.914 65.522 439.914 66.117C439.914 66.712 439.455 67.171 438.894 67.171ZM448.977 75.467C448.977 76.997 447.634 78.153 445.577 78.153C443.401 78.153 441.871 76.963 441.769 75.263H443.367C443.452 76.164 444.251 76.844 445.56 76.844C446.784 76.844 447.464 76.232 447.464 75.467C447.464 73.393 441.956 74.6 441.956 71.132C441.956 69.704 443.299 68.531 445.373 68.531C447.43 68.531 448.79 69.636 448.892 71.455H447.345C447.277 70.52 446.563 69.84 445.322 69.84C444.183 69.84 443.503 70.384 443.503 71.132C443.503 73.342 448.909 72.135 448.977 75.467ZM451.501 75.45V69.959H450.294V68.684H451.501V66.338H453.048V68.684H455.479V69.959H453.048V75.45C453.048 76.368 453.388 76.691 454.34 76.691H455.479V78H454.085C452.436 78 451.501 77.32 451.501 75.45ZM464.051 75.467C464.051 76.997 462.708 78.153 460.651 78.153C458.475 78.153 456.945 76.963 456.843 75.263H458.441C458.526 76.164 459.325 76.844 460.634 76.844C461.858 76.844 462.538 76.232 462.538 75.467C462.538 73.393 457.03 74.6 457.03 71.132C457.03 69.704 458.373 68.531 460.447 68.531C462.504 68.531 463.864 69.636 463.966 71.455H462.419C462.351 70.52 461.637 69.84 460.396 69.84C459.257 69.84 458.577 70.384 458.577 71.132C458.577 73.342 463.983 72.135 464.051 75.467ZM464.892 80.431L466.133 75.858H467.833L465.929 80.431H464.892ZM487.584 78V72.73C487.584 70.826 486.564 69.857 485.034 69.857C483.47 69.857 482.399 70.86 482.399 72.866V78H480.869V72.73C480.869 70.826 479.849 69.857 478.319 69.857C476.755 69.857 475.684 70.86 475.684 72.866V78H474.137V68.684H475.684V70.027C476.296 69.041 477.401 68.514 478.625 68.514C480.155 68.514 481.43 69.194 482.042 70.588C482.586 69.245 483.912 68.514 485.34 68.514C487.465 68.514 489.114 69.84 489.114 72.509V78H487.584ZM491.074 73.308C491.074 70.401 492.995 68.531 495.494 68.531C497.228 68.531 498.418 69.415 498.962 70.384V68.684H500.526V78H498.962V76.266C498.401 77.269 497.194 78.153 495.477 78.153C492.995 78.153 491.074 76.198 491.074 73.308ZM498.962 73.325C498.962 71.166 497.5 69.874 495.8 69.874C494.1 69.874 492.655 71.115 492.655 73.308C492.655 75.501 494.1 76.793 495.8 76.793C497.5 76.793 498.962 75.518 498.962 73.325ZM503.48 75.45V69.959H502.273V68.684H503.48V66.338H505.027V68.684H507.458V69.959H505.027V75.45C505.027 76.368 505.367 76.691 506.319 76.691H507.458V78H506.064C504.415 78 503.48 77.32 503.48 75.45ZM508.754 73.325C508.754 70.401 510.641 68.531 513.293 68.531C515.605 68.531 517.118 69.721 517.594 71.676H515.928C515.605 70.554 514.67 69.84 513.293 69.84C511.593 69.84 510.335 71.047 510.335 73.325C510.335 75.637 511.593 76.844 513.293 76.844C514.67 76.844 515.588 76.181 515.928 75.008H517.594C517.118 76.861 515.605 78.153 513.293 78.153C510.641 78.153 508.754 76.283 508.754 73.325ZM519.659 78V65.42H521.206V70.027C521.818 69.041 522.974 68.514 524.283 68.514C526.357 68.514 528.006 69.84 528.006 72.509V78H526.476V72.73C526.476 70.826 525.439 69.857 523.875 69.857C522.294 69.857 521.206 70.843 521.206 72.849V78H519.659ZM538.601 76.232L541.491 68.684H543.089L537.479 82.386H535.881L537.717 77.898L533.96 68.684H535.677L538.601 76.232ZM553.484 73.325C553.484 76.283 551.359 78.153 548.707 78.153C546.072 78.153 544.066 76.283 544.066 73.325C544.066 70.384 546.14 68.531 548.775 68.531C551.427 68.531 553.484 70.384 553.484 73.325ZM545.647 73.325C545.647 75.688 547.092 76.793 548.707 76.793C550.322 76.793 551.903 75.688 551.903 73.325C551.903 70.979 550.356 69.874 548.758 69.874C547.126 69.874 545.647 70.979 545.647 73.325ZM563.78 68.684V78H562.233V76.623C561.638 77.592 560.499 78.136 559.258 78.136C557.116 78.136 555.433 76.81 555.433 74.141V68.684H556.963V73.937C556.963 75.824 558 76.793 559.564 76.793C561.162 76.793 562.233 75.807 562.233 73.801V68.684H563.78ZM567.939 72.934V78H566.392V68.684H567.939V70.197C568.466 69.16 569.469 68.514 570.948 68.514V70.112H570.54C569.061 70.112 567.939 70.775 567.939 72.934ZM578.813 70.401C579.374 69.415 580.598 68.531 582.298 68.531C584.797 68.531 586.718 70.401 586.718 73.308C586.718 76.198 584.797 78.153 582.298 78.153C580.598 78.153 579.391 77.235 578.813 76.283V82.42H577.266V68.684H578.813V70.401ZM585.137 73.308C585.137 71.115 583.692 69.874 581.975 69.874C580.292 69.874 578.813 71.166 578.813 73.325C578.813 75.518 580.292 76.793 581.975 76.793C583.692 76.793 585.137 75.501 585.137 73.308ZM590.301 72.934V78H588.754V68.684H590.301V70.197C590.828 69.16 591.831 68.514 593.31 68.514V70.112H592.902C591.423 70.112 590.301 70.775 590.301 72.934ZM599.057 69.84C597.544 69.84 596.286 70.843 596.116 72.662H601.998C602.015 70.843 600.655 69.84 599.057 69.84ZM603.409 75.127C602.933 76.827 601.437 78.153 599.125 78.153C596.473 78.153 594.518 76.283 594.518 73.325C594.518 70.384 596.405 68.531 599.125 68.531C601.828 68.531 603.596 70.435 603.596 72.985C603.596 73.325 603.579 73.597 603.545 73.92H596.099C596.218 75.807 597.544 76.844 599.125 76.844C600.519 76.844 601.403 76.13 601.743 75.127H603.409ZM605.927 78V69.959H604.72V68.684H605.927V68.021C605.927 65.947 606.947 65.012 609.327 65.012V66.304C607.933 66.304 607.474 66.814 607.474 68.021V68.684H609.429V69.959H607.474V78H605.927ZM615.194 69.84C613.681 69.84 612.423 70.843 612.253 72.662H618.135C618.152 70.843 616.792 69.84 615.194 69.84ZM619.546 75.127C619.07 76.827 617.574 78.153 615.262 78.153C612.61 78.153 610.655 76.283 610.655 73.325C610.655 70.384 612.542 68.531 615.262 68.531C617.965 68.531 619.733 70.435 619.733 72.985C619.733 73.325 619.716 73.597 619.682 73.92H612.236C612.355 75.807 613.681 76.844 615.262 76.844C616.656 76.844 617.54 76.13 617.88 75.127H619.546ZM623.322 72.934V78H621.775V68.684H623.322V70.197C623.849 69.16 624.852 68.514 626.331 68.514V70.112H625.923C624.444 70.112 623.322 70.775 623.322 72.934ZM632.078 69.84C630.565 69.84 629.307 70.843 629.137 72.662H635.019C635.036 70.843 633.676 69.84 632.078 69.84ZM636.43 75.127C635.954 76.827 634.458 78.153 632.146 78.153C629.494 78.153 627.539 76.283 627.539 73.325C627.539 70.384 629.426 68.531 632.146 68.531C634.849 68.531 636.617 70.435 636.617 72.985C636.617 73.325 636.6 73.597 636.566 73.92H629.12C629.239 75.807 630.565 76.844 632.146 76.844C633.54 76.844 634.424 76.13 634.764 75.127H636.43ZM645.476 78V72.73C645.476 70.826 644.439 69.857 642.875 69.857C641.294 69.857 640.206 70.843 640.206 72.849V78H638.659V68.684H640.206V70.01C640.818 69.041 641.94 68.514 643.198 68.514C645.357 68.514 647.006 69.84 647.006 72.509V78H645.476ZM648.955 73.325C648.955 70.401 650.842 68.531 653.494 68.531C655.806 68.531 657.319 69.721 657.795 71.676H656.129C655.806 70.554 654.871 69.84 653.494 69.84C651.794 69.84 650.536 71.047 650.536 73.325C650.536 75.637 651.794 76.844 653.494 76.844C654.871 76.844 655.789 76.181 656.129 75.008H657.795C657.319 76.861 655.806 78.153 653.494 78.153C650.842 78.153 648.955 76.283 648.955 73.325ZM663.82 69.84C662.307 69.84 661.049 70.843 660.879 72.662H666.761C666.778 70.843 665.418 69.84 663.82 69.84ZM668.172 75.127C667.696 76.827 666.2 78.153 663.888 78.153C661.236 78.153 659.281 76.283 659.281 73.325C659.281 70.384 661.168 68.531 663.888 68.531C666.591 68.531 668.359 70.435 668.359 72.985C668.359 73.325 668.342 73.597 668.308 73.92H660.862C660.981 75.807 662.307 76.844 663.888 76.844C665.282 76.844 666.166 76.13 666.506 75.127H668.172ZM670.928 74.651L670.741 66.151H672.407L672.22 74.651H670.928ZM672.662 77.048C672.662 77.643 672.203 78.102 671.642 78.102C671.047 78.102 670.588 77.643 670.588 77.048C670.588 76.453 671.047 75.994 671.642 75.994C672.203 75.994 672.662 76.453 672.662 77.048Z" fill="#81B29A"/>
</svg>
