<svg width="747" height="106" viewBox="0 0 747 106" fill="none" xmlns="http://www.w3.org/2000/svg">
<rect width="747" height="106" rx="20" fill="white"/>
<path d="M39.6666 43.5C39.6666 34.5433 39.6666 30.065 42.4491 27.2825C45.2316 24.5 49.7099 24.5 58.6666 24.5H71.3333C80.29 24.5 84.7683 24.5 87.5508 27.2825C90.3333 30.065 90.3333 34.5433 90.3333 43.5V65.1208C90.3333 73.6178 90.3333 77.8664 87.6597 79.1658C84.9861 80.4653 81.6454 77.8405 74.964 72.5908L72.8257 70.9107C69.0688 67.9589 67.1904 66.483 65 66.483C62.8095 66.483 60.9311 67.9589 57.1742 70.9107L55.0359 72.5908C48.3545 77.8405 45.0138 80.4653 42.3402 79.1658C39.6666 77.8664 39.6666 73.6178 39.6666 65.1208V43.5Z" fill="#E07A5F" stroke="#E07A5F" stroke-width="2"/>
<path d="M134.675 44.025C134.675 42.3 133.375 41.25 131.475 41.25H127.725V46.675H131.575C133.5 46.675 134.675 45.7 134.675 44.025ZM134.225 36.45C134.225 34.875 133.1 33.95 131.25 33.95H127.725V38.925H131.25C133.1 38.925 134.225 38.05 134.225 36.45ZM137.525 44.325C137.525 46.975 135.375 49 131.825 49H124.875V31.625H131.5C135.175 31.625 137.125 33.65 137.125 36.1C137.125 38.2 135.85 39.475 134.175 40.075C136.025 40.4 137.525 42.25 137.525 44.325ZM153.747 42.1C153.747 46.425 150.547 49.225 146.597 49.225C142.672 49.225 139.697 46.425 139.697 42.1C139.697 37.775 142.797 35 146.722 35C150.647 35 153.747 37.775 153.747 42.1ZM142.597 42.1C142.597 45.225 144.447 46.75 146.597 46.75C148.722 46.75 150.822 45.225 150.822 42.1C150.822 38.975 148.797 37.475 146.672 37.475C144.522 37.475 142.597 38.975 142.597 42.1ZM169.689 42.1C169.689 46.425 166.489 49.225 162.539 49.225C158.614 49.225 155.639 46.425 155.639 42.1C155.639 37.775 158.739 35 162.664 35C166.589 35 169.689 37.775 169.689 42.1ZM158.539 42.1C158.539 45.225 160.389 46.75 162.539 46.75C164.664 46.75 166.764 45.225 166.764 42.1C166.764 38.975 164.739 37.475 162.614 37.475C160.464 37.475 158.539 38.975 158.539 42.1ZM172.507 49V30.5H175.357V41.25L180.357 35.225H184.307L177.957 42.125L184.307 49H180.457L175.357 43.075V49H172.507ZM205.875 49V41.3C205.875 38.775 204.5 37.475 202.425 37.475C200.325 37.475 198.95 38.775 198.95 41.3V49H196.125V41.3C196.125 38.775 194.75 37.475 192.675 37.475C190.575 37.475 189.2 38.775 189.2 41.3V49H186.35V35.225H189.2V36.8C190.125 35.675 191.625 35 193.275 35C195.45 35 197.275 35.925 198.225 37.725C199.075 36.05 201.025 35 203.025 35C206.25 35 208.7 37.025 208.7 40.875V49H205.875ZM211.376 42.05C211.376 37.8 214.251 35 217.876 35C220.201 35 221.801 36.1 222.651 37.225V35.225H225.526V49H222.651V46.95C221.776 48.125 220.126 49.225 217.826 49.225C214.251 49.225 211.376 46.3 211.376 42.05ZM222.651 42.1C222.651 39.15 220.626 37.475 218.476 37.475C216.351 37.475 214.301 39.075 214.301 42.05C214.301 45.025 216.351 46.75 218.476 46.75C220.626 46.75 222.651 45.075 222.651 42.1ZM232.12 41.75V49H229.27V35.225H232.12V37.225C232.92 35.85 234.295 35 236.245 35V37.95H235.52C233.42 37.95 232.12 38.825 232.12 41.75ZM238.864 49V30.5H241.714V41.25L246.714 35.225H250.664L244.314 42.125L250.664 49H246.814L241.714 43.075V49H238.864ZM259.651 45.175V37.55H258.026V35.225H259.651V31.8H262.526V35.225H265.876V37.55H262.526V45.175C262.526 46.2 262.926 46.625 264.126 46.625H265.876V49H263.626C261.176 49 259.651 47.975 259.651 45.175ZM268.503 49V30.5H271.353V36.825C272.303 35.675 273.853 35 275.628 35C278.703 35 281.103 37.025 281.103 40.875V49H278.278V41.3C278.278 38.775 276.903 37.475 274.828 37.475C272.728 37.475 271.353 38.775 271.353 41.3V49H268.503ZM290.538 37.4C288.613 37.4 287.063 38.7 286.763 40.875H294.388C294.338 38.75 292.663 37.4 290.538 37.4ZM296.988 44.9C296.213 47.3 294.038 49.225 290.663 49.225C286.713 49.225 283.788 46.425 283.788 42.1C283.788 37.775 286.588 35 290.663 35C294.588 35 297.363 37.725 297.363 41.775C297.363 42.25 297.338 42.7 297.263 43.175H286.738C286.938 45.45 288.563 46.825 290.663 46.825C292.413 46.825 293.388 45.975 293.913 44.9H296.988ZM306.662 49V30.5H309.512V49H306.662ZM313.254 49V35.225H316.104V49H313.254ZM314.704 33.4C313.679 33.4 312.879 32.6 312.879 31.575C312.879 30.55 313.679 29.75 314.704 29.75C315.704 29.75 316.504 30.55 316.504 31.575C316.504 32.6 315.704 33.4 314.704 33.4ZM330.121 45.15C330.121 47.475 328.096 49.225 324.846 49.225C321.546 49.225 319.221 47.275 319.096 44.775H322.046C322.146 45.9 323.221 46.825 324.796 46.825C326.446 46.825 327.321 46.125 327.321 45.175C327.321 42.475 319.321 44.025 319.321 38.975C319.321 36.775 321.371 35 324.621 35C327.746 35 329.796 36.675 329.946 39.425H327.096C326.996 38.225 326.071 37.4 324.521 37.4C322.996 37.4 322.196 38.025 322.196 38.95C322.196 41.725 329.971 40.175 330.121 45.15ZM333.65 45.175V37.55H332.025V35.225H333.65V31.8H336.525V35.225H339.875V37.55H336.525V45.175C336.525 46.2 336.925 46.625 338.125 46.625H339.875V49H337.625C335.175 49 333.65 47.975 333.65 45.175ZM352.777 45.15C352.777 47.475 350.752 49.225 347.502 49.225C344.202 49.225 341.877 47.275 341.752 44.775H344.702C344.802 45.9 345.877 46.825 347.452 46.825C349.102 46.825 349.977 46.125 349.977 45.175C349.977 42.475 341.977 44.025 341.977 38.975C341.977 36.775 344.027 35 347.277 35C350.402 35 352.452 36.675 352.602 39.425H349.752C349.652 38.225 348.727 37.4 347.177 37.4C345.652 37.4 344.852 38.025 344.852 38.95C344.852 41.725 352.627 40.175 352.777 45.15ZM361.401 42.05C361.401 37.8 364.276 35 367.901 35C370.226 35 371.826 36.1 372.676 37.225V35.225H375.551V49H372.676V46.95C371.801 48.125 370.151 49.225 367.851 49.225C364.276 49.225 361.401 46.3 361.401 42.05ZM372.676 42.1C372.676 39.15 370.651 37.475 368.501 37.475C366.376 37.475 364.326 39.075 364.326 42.05C364.326 45.025 366.376 46.75 368.501 46.75C370.651 46.75 372.676 45.075 372.676 42.1ZM389.069 49V41.3C389.069 38.775 387.694 37.475 385.619 37.475C383.519 37.475 382.144 38.775 382.144 41.3V49H379.294V35.225H382.144V36.8C383.069 35.675 384.594 35 386.244 35C389.469 35 391.894 37.025 391.894 40.875V49H389.069ZM394.579 42.05C394.579 37.8 397.454 35 401.104 35C402.904 35 404.804 35.85 405.854 37.15V30.5H408.729V49H405.854V46.925C404.979 48.175 403.329 49.225 401.079 49.225C397.454 49.225 394.579 46.3 394.579 42.05ZM405.854 42.1C405.854 39.15 403.829 37.475 401.679 37.475C399.554 37.475 397.504 39.075 397.504 42.05C397.504 45.025 399.554 46.75 401.679 46.75C403.829 46.75 405.854 45.075 405.854 42.1ZM418.967 49V30.5H421.817V49H418.967ZM425.559 49V35.225H428.409V49H425.559ZM427.009 33.4C425.984 33.4 425.184 32.6 425.184 31.575C425.184 30.55 425.984 29.75 427.009 29.75C428.009 29.75 428.809 30.55 428.809 31.575C428.809 32.6 428.009 33.4 427.009 33.4ZM432.15 49V30.5H435V41.25L440 35.225H443.95L437.6 42.125L443.95 49H440.1L435 43.075V49H432.15ZM451.793 37.4C449.868 37.4 448.318 38.7 448.018 40.875H455.643C455.593 38.75 453.918 37.4 451.793 37.4ZM458.243 44.9C457.468 47.3 455.293 49.225 451.918 49.225C447.968 49.225 445.043 46.425 445.043 42.1C445.043 37.775 447.843 35 451.918 35C455.843 35 458.618 37.725 458.618 41.775C458.618 42.25 458.593 42.7 458.518 43.175H447.993C448.193 45.45 449.818 46.825 451.918 46.825C453.668 46.825 454.643 45.975 455.168 44.9H458.243ZM468.367 45.175V37.55H466.742V35.225H468.367V31.8H471.242V35.225H474.592V37.55H471.242V45.175C471.242 46.2 471.642 46.625 472.842 46.625H474.592V49H472.342C469.892 49 468.367 47.975 468.367 45.175ZM490.344 42.1C490.344 46.425 487.144 49.225 483.194 49.225C479.269 49.225 476.294 46.425 476.294 42.1C476.294 37.775 479.394 35 483.319 35C487.244 35 490.344 37.775 490.344 42.1ZM479.194 42.1C479.194 45.225 481.044 46.75 483.194 46.75C485.319 46.75 487.419 45.225 487.419 42.1C487.419 38.975 485.394 37.475 483.269 37.475C481.119 37.475 479.194 38.975 479.194 42.1ZM512.13 35.225V49H509.28V47.35C508.38 48.525 506.83 49.2 505.205 49.2C501.98 49.2 499.53 47.175 499.53 43.325V35.225H502.355V42.9C502.355 45.425 503.73 46.725 505.805 46.725C507.905 46.725 509.28 45.425 509.28 42.9V35.225H512.13ZM518.741 37.25C519.616 36.1 521.291 35 523.541 35C527.166 35 530.016 37.8 530.016 42.05C530.016 46.3 527.166 49.225 523.541 49.225C521.266 49.225 519.641 48.075 518.741 47V55.55H515.891V35.225H518.741V37.25ZM527.116 42.05C527.116 39.075 525.066 37.475 522.916 37.475C520.791 37.475 518.741 39.15 518.741 42.1C518.741 45.075 520.791 46.75 522.916 46.75C525.066 46.75 527.116 45.025 527.116 42.05ZM531.209 35.225H534.259L538.159 46.45L542.059 35.225H545.084L539.834 49H536.434L531.209 35.225ZM560.363 42.1C560.363 46.425 557.163 49.225 553.213 49.225C549.288 49.225 546.313 46.425 546.313 42.1C546.313 37.775 549.413 35 553.338 35C557.263 35 560.363 37.775 560.363 42.1ZM549.213 42.1C549.213 45.225 551.063 46.75 553.213 46.75C555.338 46.75 557.438 45.225 557.438 42.1C557.438 38.975 555.413 37.475 553.288 37.475C551.138 37.475 549.213 38.975 549.213 42.1ZM563.631 45.175V37.55H562.006V35.225H563.631V31.8H566.506V35.225H569.856V37.55H566.506V45.175C566.506 46.2 566.906 46.625 568.106 46.625H569.856V49H567.606C565.156 49 563.631 47.975 563.631 45.175ZM578.282 37.4C576.357 37.4 574.807 38.7 574.507 40.875H582.132C582.082 38.75 580.407 37.4 578.282 37.4ZM584.732 44.9C583.957 47.3 581.782 49.225 578.407 49.225C574.457 49.225 571.532 46.425 571.532 42.1C571.532 37.775 574.332 35 578.407 35C582.332 35 585.107 37.725 585.107 41.775C585.107 42.25 585.082 42.7 585.007 43.175H574.482C574.682 45.45 576.307 46.825 578.407 46.825C580.157 46.825 581.132 45.975 581.657 44.9H584.732Z" fill="#3E6652"/>
<path d="M132.265 78L131.313 75.365H126.145L125.193 78H123.561L127.845 66.219H129.63L133.897 78H132.265ZM130.871 74.107L128.729 68.123L126.587 74.107H130.871ZM135.186 73.308C135.186 70.401 137.107 68.531 139.623 68.531C141.085 68.531 142.428 69.279 143.074 70.35V65.42H144.638V78H143.074V76.249C142.513 77.286 141.306 78.153 139.606 78.153C137.107 78.153 135.186 76.198 135.186 73.308ZM143.074 73.325C143.074 71.166 141.612 69.874 139.912 69.874C138.212 69.874 136.767 71.115 136.767 73.308C136.767 75.501 138.212 76.793 139.912 76.793C141.612 76.793 143.074 75.518 143.074 73.325ZM146.674 73.308C146.674 70.401 148.595 68.531 151.111 68.531C152.573 68.531 153.916 69.279 154.562 70.35V65.42H156.126V78H154.562V76.249C154.001 77.286 152.794 78.153 151.094 78.153C148.595 78.153 146.674 76.198 146.674 73.308ZM154.562 73.325C154.562 71.166 153.1 69.874 151.4 69.874C149.7 69.874 148.255 71.115 148.255 73.308C148.255 75.501 149.7 76.793 151.4 76.793C153.1 76.793 154.562 75.518 154.562 73.325ZM163.613 75.45V69.959H162.406V68.684H163.613V66.338H165.16V68.684H167.591V69.959H165.16V75.45C165.16 76.368 165.5 76.691 166.452 76.691H167.591V78H166.197C164.548 78 163.613 77.32 163.613 75.45ZM169.465 78V65.42H171.012V70.027C171.624 69.041 172.78 68.514 174.089 68.514C176.163 68.514 177.812 69.84 177.812 72.509V78H176.282V72.73C176.282 70.826 175.245 69.857 173.681 69.857C172.1 69.857 171.012 70.843 171.012 72.849V78H169.465ZM184.3 69.84C182.787 69.84 181.529 70.843 181.359 72.662H187.241C187.258 70.843 185.898 69.84 184.3 69.84ZM188.652 75.127C188.176 76.827 186.68 78.153 184.368 78.153C181.716 78.153 179.761 76.283 179.761 73.325C179.761 70.384 181.648 68.531 184.368 68.531C187.071 68.531 188.839 70.435 188.839 72.985C188.839 73.325 188.822 73.597 188.788 73.92H181.342C181.461 75.807 182.787 76.844 184.368 76.844C185.762 76.844 186.646 76.13 186.986 75.127H188.652ZM194.835 73.308C194.835 70.401 196.756 68.531 199.272 68.531C200.734 68.531 202.077 69.279 202.723 70.35V65.42H204.287V78H202.723V76.249C202.162 77.286 200.955 78.153 199.255 78.153C196.756 78.153 194.835 76.198 194.835 73.308ZM202.723 73.325C202.723 71.166 201.261 69.874 199.561 69.874C197.861 69.874 196.416 71.115 196.416 73.308C196.416 75.501 197.861 76.793 199.561 76.793C201.261 76.793 202.723 75.518 202.723 73.325ZM210.863 69.84C209.35 69.84 208.092 70.843 207.922 72.662H213.804C213.821 70.843 212.461 69.84 210.863 69.84ZM215.215 75.127C214.739 76.827 213.243 78.153 210.931 78.153C208.279 78.153 206.324 76.283 206.324 73.325C206.324 70.384 208.211 68.531 210.931 68.531C213.634 68.531 215.402 70.435 215.402 72.985C215.402 73.325 215.385 73.597 215.351 73.92H207.905C208.024 75.807 209.35 76.844 210.931 76.844C212.325 76.844 213.209 76.13 213.549 75.127H215.215ZM224.142 75.467C224.142 76.997 222.799 78.153 220.742 78.153C218.566 78.153 217.036 76.963 216.934 75.263H218.532C218.617 76.164 219.416 76.844 220.725 76.844C221.949 76.844 222.629 76.232 222.629 75.467C222.629 73.393 217.121 74.6 217.121 71.132C217.121 69.704 218.464 68.531 220.538 68.531C222.595 68.531 223.955 69.636 224.057 71.455H222.51C222.442 70.52 221.728 69.84 220.487 69.84C219.348 69.84 218.668 70.384 218.668 71.132C218.668 73.342 224.074 72.135 224.142 75.467ZM226.666 75.45V69.959H225.459V68.684H226.666V66.338H228.213V68.684H230.644V69.959H228.213V75.45C228.213 76.368 228.553 76.691 229.505 76.691H230.644V78H229.25C227.601 78 226.666 77.32 226.666 75.45ZM232.518 78V68.684H234.065V78H232.518ZM233.317 67.171C232.722 67.171 232.263 66.712 232.263 66.117C232.263 65.522 232.722 65.063 233.317 65.063C233.878 65.063 234.337 65.522 234.337 66.117C234.337 66.712 233.878 67.171 233.317 67.171ZM243.519 78V72.73C243.519 70.826 242.482 69.857 240.918 69.857C239.337 69.857 238.249 70.843 238.249 72.849V78H236.702V68.684H238.249V70.01C238.861 69.041 239.983 68.514 241.241 68.514C243.4 68.514 245.049 69.84 245.049 72.509V78H243.519ZM246.998 73.308C246.998 70.401 248.919 68.531 251.418 68.531C253.152 68.531 254.342 69.415 254.886 70.384V68.684H256.45V78H254.886V76.266C254.325 77.269 253.118 78.153 251.401 78.153C248.919 78.153 246.998 76.198 246.998 73.308ZM254.886 73.325C254.886 71.166 253.424 69.874 251.724 69.874C250.024 69.874 248.579 71.115 248.579 73.308C248.579 75.501 250.024 76.793 251.724 76.793C253.424 76.793 254.886 75.518 254.886 73.325ZM259.404 75.45V69.959H258.197V68.684H259.404V66.338H260.951V68.684H263.382V69.959H260.951V75.45C260.951 76.368 261.291 76.691 262.243 76.691H263.382V78H261.988C260.339 78 259.404 77.32 259.404 75.45ZM265.256 78V68.684H266.803V78H265.256ZM266.055 67.171C265.46 67.171 265.001 66.712 265.001 66.117C265.001 65.522 265.46 65.063 266.055 65.063C266.616 65.063 267.075 65.522 267.075 66.117C267.075 66.712 266.616 67.171 266.055 67.171ZM278.28 73.325C278.28 76.283 276.155 78.153 273.503 78.153C270.868 78.153 268.862 76.283 268.862 73.325C268.862 70.384 270.936 68.531 273.571 68.531C276.223 68.531 278.28 70.384 278.28 73.325ZM270.443 73.325C270.443 75.688 271.888 76.793 273.503 76.793C275.118 76.793 276.699 75.688 276.699 73.325C276.699 70.979 275.152 69.874 273.554 69.874C271.922 69.874 270.443 70.979 270.443 73.325ZM287.131 78V72.73C287.131 70.826 286.094 69.857 284.53 69.857C282.949 69.857 281.861 70.843 281.861 72.849V78H280.314V68.684H281.861V70.01C282.473 69.041 283.595 68.514 284.853 68.514C287.012 68.514 288.661 69.84 288.661 72.509V78H287.131ZM297.267 70.401C297.828 69.415 299.052 68.531 300.752 68.531C303.251 68.531 305.172 70.401 305.172 73.308C305.172 76.198 303.251 78.153 300.752 78.153C299.052 78.153 297.845 77.235 297.267 76.283V82.42H295.72V68.684H297.267V70.401ZM303.591 73.308C303.591 71.115 302.146 69.874 300.429 69.874C298.746 69.874 297.267 71.166 297.267 73.325C297.267 75.518 298.746 76.793 300.429 76.793C302.146 76.793 303.591 75.501 303.591 73.308ZM306.63 73.308C306.63 70.401 308.551 68.531 311.05 68.531C312.784 68.531 313.974 69.415 314.518 70.384V68.684H316.082V78H314.518V76.266C313.957 77.269 312.75 78.153 311.033 78.153C308.551 78.153 306.63 76.198 306.63 73.308ZM314.518 73.325C314.518 71.166 313.056 69.874 311.356 69.874C309.656 69.874 308.211 71.115 308.211 73.308C308.211 75.501 309.656 76.793 311.356 76.793C313.056 76.793 314.518 75.518 314.518 73.325ZM318.119 73.325C318.119 70.401 320.006 68.531 322.658 68.531C324.97 68.531 326.483 69.721 326.959 71.676H325.293C324.97 70.554 324.035 69.84 322.658 69.84C320.958 69.84 319.7 71.047 319.7 73.325C319.7 75.637 320.958 76.844 322.658 76.844C324.035 76.844 324.953 76.181 325.293 75.008H326.959C326.483 76.861 324.97 78.153 322.658 78.153C320.006 78.153 318.119 76.283 318.119 73.325ZM329.023 78V65.42H330.57V72.815L334.157 68.684H336.316L331.93 73.325L336.333 78H334.225L330.57 73.886V78H329.023ZM337.194 73.308C337.194 70.401 339.115 68.531 341.614 68.531C343.348 68.531 344.538 69.415 345.082 70.384V68.684H346.646V78H345.082V76.266C344.521 77.269 343.314 78.153 341.597 78.153C339.115 78.153 337.194 76.198 337.194 73.308ZM345.082 73.325C345.082 71.166 343.62 69.874 341.92 69.874C340.22 69.874 338.775 71.115 338.775 73.308C338.775 75.501 340.22 76.793 341.92 76.793C343.62 76.793 345.082 75.518 345.082 73.325ZM348.682 73.308C348.682 70.401 350.603 68.531 353.102 68.531C354.802 68.531 356.026 69.381 356.57 70.384V68.684H358.134V78.204C358.134 80.771 356.417 82.59 353.68 82.59C351.232 82.59 349.481 81.349 349.175 79.36H350.705C351.045 80.482 352.15 81.247 353.68 81.247C355.329 81.247 356.57 80.193 356.57 78.204V76.249C356.009 77.252 354.802 78.153 353.102 78.153C350.603 78.153 348.682 76.198 348.682 73.308ZM356.57 73.325C356.57 71.166 355.108 69.874 353.408 69.874C351.708 69.874 350.263 71.115 350.263 73.308C350.263 75.501 351.708 76.793 353.408 76.793C355.108 76.793 356.57 75.518 356.57 73.325ZM364.709 69.84C363.196 69.84 361.938 70.843 361.768 72.662H367.65C367.667 70.843 366.307 69.84 364.709 69.84ZM369.061 75.127C368.585 76.827 367.089 78.153 364.777 78.153C362.125 78.153 360.17 76.283 360.17 73.325C360.17 70.384 362.057 68.531 364.777 68.531C367.48 68.531 369.248 70.435 369.248 72.985C369.248 73.325 369.231 73.597 369.197 73.92H361.751C361.87 75.807 363.196 76.844 364.777 76.844C366.171 76.844 367.055 76.13 367.395 75.127H369.061ZM377.988 75.467C377.988 76.997 376.645 78.153 374.588 78.153C372.412 78.153 370.882 76.963 370.78 75.263H372.378C372.463 76.164 373.262 76.844 374.571 76.844C375.795 76.844 376.475 76.232 376.475 75.467C376.475 73.393 370.967 74.6 370.967 71.132C370.967 69.704 372.31 68.531 374.384 68.531C376.441 68.531 377.801 69.636 377.903 71.455H376.356C376.288 70.52 375.574 69.84 374.333 69.84C373.194 69.84 372.514 70.384 372.514 71.132C372.514 73.342 377.92 72.135 377.988 75.467ZM388.241 76.232L391.131 68.684H392.729L387.119 82.386H385.521L387.357 77.898L383.6 68.684H385.317L388.241 76.232ZM403.124 73.325C403.124 76.283 400.999 78.153 398.347 78.153C395.712 78.153 393.706 76.283 393.706 73.325C393.706 70.384 395.78 68.531 398.415 68.531C401.067 68.531 403.124 70.384 403.124 73.325ZM395.287 73.325C395.287 75.688 396.732 76.793 398.347 76.793C399.962 76.793 401.543 75.688 401.543 73.325C401.543 70.979 399.996 69.874 398.398 69.874C396.766 69.874 395.287 70.979 395.287 73.325ZM413.42 68.684V78H411.873V76.623C411.278 77.592 410.139 78.136 408.898 78.136C406.756 78.136 405.073 76.81 405.073 74.141V68.684H406.603V73.937C406.603 75.824 407.64 76.793 409.204 76.793C410.802 76.793 411.873 75.807 411.873 73.801V68.684H413.42ZM416.355 70.01H415.267L416.27 66.151H417.987L416.355 70.01ZM419.172 73.308C419.172 70.401 421.093 68.531 423.609 68.531C425.071 68.531 426.414 69.279 427.06 70.35V65.42H428.624V78H427.06V76.249C426.499 77.286 425.292 78.153 423.592 78.153C421.093 78.153 419.172 76.198 419.172 73.308ZM427.06 73.325C427.06 71.166 425.598 69.874 423.898 69.874C422.198 69.874 420.753 71.115 420.753 73.308C420.753 75.501 422.198 76.793 423.898 76.793C425.598 76.793 427.06 75.518 427.06 73.325ZM435.771 78V65.42H437.318V78H435.771ZM448.795 73.325C448.795 76.283 446.67 78.153 444.018 78.153C441.383 78.153 439.377 76.283 439.377 73.325C439.377 70.384 441.451 68.531 444.086 68.531C446.738 68.531 448.795 70.384 448.795 73.325ZM440.958 73.325C440.958 75.688 442.403 76.793 444.018 76.793C445.633 76.793 447.214 75.688 447.214 73.325C447.214 70.979 445.667 69.874 444.069 69.874C442.437 69.874 440.958 70.979 440.958 73.325ZM449.724 68.684H451.39L454.297 76.572L457.187 68.684H458.836L455.181 78H453.379L449.724 68.684ZM464.319 69.84C462.806 69.84 461.548 70.843 461.378 72.662H467.26C467.277 70.843 465.917 69.84 464.319 69.84ZM468.671 75.127C468.195 76.827 466.699 78.153 464.387 78.153C461.735 78.153 459.78 76.283 459.78 73.325C459.78 70.384 461.667 68.531 464.387 68.531C467.09 68.531 468.858 70.435 468.858 72.985C468.858 73.325 468.841 73.597 468.807 73.92H461.361C461.48 75.807 462.806 76.844 464.387 76.844C465.781 76.844 466.665 76.13 467.005 75.127H468.671ZM475.772 75.45V69.959H474.565V68.684H475.772V66.338H477.319V68.684H479.75V69.959H477.319V75.45C477.319 76.368 477.659 76.691 478.611 76.691H479.75V78H478.356C476.707 78 475.772 77.32 475.772 75.45ZM490.464 73.325C490.464 76.283 488.339 78.153 485.687 78.153C483.052 78.153 481.046 76.283 481.046 73.325C481.046 70.384 483.12 68.531 485.755 68.531C488.407 68.531 490.464 70.384 490.464 73.325ZM482.627 73.325C482.627 75.688 484.072 76.793 485.687 76.793C487.302 76.793 488.883 75.688 488.883 73.325C488.883 70.979 487.336 69.874 485.738 69.874C484.106 69.874 482.627 70.979 482.627 73.325ZM495.926 68.684H497.592L500.499 76.572L503.389 68.684H505.038L501.383 78H499.581L495.926 68.684ZM506.56 78V68.684H508.107V78H506.56ZM507.359 67.171C506.764 67.171 506.305 66.712 506.305 66.117C506.305 65.522 506.764 65.063 507.359 65.063C507.92 65.063 508.379 65.522 508.379 66.117C508.379 66.712 507.92 67.171 507.359 67.171ZM517.442 75.467C517.442 76.997 516.099 78.153 514.042 78.153C511.866 78.153 510.336 76.963 510.234 75.263H511.832C511.917 76.164 512.716 76.844 514.025 76.844C515.249 76.844 515.929 76.232 515.929 75.467C515.929 73.393 510.421 74.6 510.421 71.132C510.421 69.704 511.764 68.531 513.838 68.531C515.895 68.531 517.255 69.636 517.357 71.455H515.81C515.742 70.52 515.028 69.84 513.787 69.84C512.648 69.84 511.968 70.384 511.968 71.132C511.968 73.342 517.374 72.135 517.442 75.467ZM519.625 78V68.684H521.172V78H519.625ZM520.424 67.171C519.829 67.171 519.37 66.712 519.37 66.117C519.37 65.522 519.829 65.063 520.424 65.063C520.985 65.063 521.444 65.522 521.444 66.117C521.444 66.712 520.985 67.171 520.424 67.171ZM524.149 75.45V69.959H522.942V68.684H524.149V66.338H525.696V68.684H528.127V69.959H525.696V75.45C525.696 76.368 526.036 76.691 526.988 76.691H528.127V78H526.733C525.084 78 524.149 77.32 524.149 75.45ZM534.874 75.45V69.959H533.667V68.684H534.874V66.338H536.421V68.684H538.852V69.959H536.421V75.45C536.421 76.368 536.761 76.691 537.713 76.691H538.852V78H537.458C535.809 78 534.874 77.32 534.874 75.45ZM549.566 73.325C549.566 76.283 547.441 78.153 544.789 78.153C542.154 78.153 540.148 76.283 540.148 73.325C540.148 70.384 542.222 68.531 544.857 68.531C547.509 68.531 549.566 70.384 549.566 73.325ZM541.729 73.325C541.729 75.688 543.174 76.793 544.789 76.793C546.404 76.793 547.985 75.688 547.985 73.325C547.985 70.979 546.438 69.874 544.84 69.874C543.208 69.874 541.729 70.979 541.729 73.325ZM559.668 76.232L562.558 68.684H564.156L558.546 82.386H556.948L558.784 77.898L555.027 68.684H556.744L559.668 76.232ZM574.551 73.325C574.551 76.283 572.426 78.153 569.774 78.153C567.139 78.153 565.133 76.283 565.133 73.325C565.133 70.384 567.207 68.531 569.842 68.531C572.494 68.531 574.551 70.384 574.551 73.325ZM566.714 73.325C566.714 75.688 568.159 76.793 569.774 76.793C571.389 76.793 572.97 75.688 572.97 73.325C572.97 70.979 571.423 69.874 569.825 69.874C568.193 69.874 566.714 70.979 566.714 73.325ZM584.847 68.684V78H583.3V76.623C582.705 77.592 581.566 78.136 580.325 78.136C578.183 78.136 576.5 76.81 576.5 74.141V68.684H578.03V73.937C578.03 75.824 579.067 76.793 580.631 76.793C582.229 76.793 583.3 75.807 583.3 73.801V68.684H584.847ZM589.006 72.934V78H587.459V68.684H589.006V70.197C589.533 69.16 590.536 68.514 592.015 68.514V70.112H591.607C590.128 70.112 589.006 70.775 589.006 72.934ZM599.88 70.418C600.475 69.381 601.716 68.531 603.365 68.531C605.881 68.531 607.785 70.401 607.785 73.308C607.785 76.198 605.864 78.153 603.365 78.153C601.665 78.153 600.458 77.303 599.88 76.283V78H598.333V65.42H599.88V70.418ZM606.204 73.308C606.204 71.115 604.759 69.874 603.042 69.874C601.359 69.874 599.88 71.166 599.88 73.325C599.88 75.518 601.359 76.793 603.042 76.793C604.759 76.793 606.204 75.501 606.204 73.308ZM618.662 73.325C618.662 76.283 616.537 78.153 613.885 78.153C611.25 78.153 609.244 76.283 609.244 73.325C609.244 70.384 611.318 68.531 613.953 68.531C616.605 68.531 618.662 70.384 618.662 73.325ZM610.825 73.325C610.825 75.688 612.27 76.793 613.885 76.793C615.5 76.793 617.081 75.688 617.081 73.325C617.081 70.979 615.534 69.874 613.936 69.874C612.304 69.874 610.825 70.979 610.825 73.325ZM629.536 73.325C629.536 76.283 627.411 78.153 624.759 78.153C622.124 78.153 620.118 76.283 620.118 73.325C620.118 70.384 622.192 68.531 624.827 68.531C627.479 68.531 629.536 70.384 629.536 73.325ZM621.699 73.325C621.699 75.688 623.144 76.793 624.759 76.793C626.374 76.793 627.955 75.688 627.955 73.325C627.955 70.979 626.408 69.874 624.81 69.874C623.178 69.874 621.699 70.979 621.699 73.325ZM631.57 78V65.42H633.117V72.815L636.704 68.684H638.863L634.477 73.325L638.88 78H636.772L633.117 73.886V78H631.57ZM653.766 78V72.73C653.766 70.826 652.746 69.857 651.216 69.857C649.652 69.857 648.581 70.86 648.581 72.866V78H647.051V72.73C647.051 70.826 646.031 69.857 644.501 69.857C642.937 69.857 641.866 70.86 641.866 72.866V78H640.319V68.684H641.866V70.027C642.478 69.041 643.583 68.514 644.807 68.514C646.337 68.514 647.612 69.194 648.224 70.588C648.768 69.245 650.094 68.514 651.522 68.514C653.647 68.514 655.296 69.84 655.296 72.509V78H653.766ZM657.255 73.308C657.255 70.401 659.176 68.531 661.675 68.531C663.409 68.531 664.599 69.415 665.143 70.384V68.684H666.707V78H665.143V76.266C664.582 77.269 663.375 78.153 661.658 78.153C659.176 78.153 657.255 76.198 657.255 73.308ZM665.143 73.325C665.143 71.166 663.681 69.874 661.981 69.874C660.281 69.874 658.836 71.115 658.836 73.308C658.836 75.501 660.281 76.793 661.981 76.793C663.681 76.793 665.143 75.518 665.143 73.325ZM670.869 72.934V78H669.322V68.684H670.869V70.197C671.396 69.16 672.399 68.514 673.878 68.514V70.112H673.47C671.991 70.112 670.869 70.775 670.869 72.934ZM675.663 78V65.42H677.21V72.815L680.797 68.684H682.956L678.57 73.325L682.973 78H680.865L677.21 73.886V78H675.663ZM684.94 74.651L684.753 66.151H686.419L686.232 74.651H684.94ZM686.674 77.048C686.674 77.643 686.215 78.102 685.654 78.102C685.059 78.102 684.6 77.643 684.6 77.048C684.6 76.453 685.059 75.994 685.654 75.994C686.215 75.994 686.674 76.453 686.674 77.048Z" fill="#81B29A"/>
</svg>
