<svg width="338" height="338" viewBox="0 0 338 338" fill="none" xmlns="http://www.w3.org/2000/svg">
<circle cx="169" cy="169" r="169" fill="white"/>
<path d="M83.4128 213V127.896H50.1488V117.672H127.477V127.896H94.2128V213H83.4128ZM129.071 213V141H139.871V152.232C142.463 148.776 145.631 145.848 149.375 143.448C153.119 141.048 157.919 139.848 163.775 139.848C168.767 139.848 173.423 141.048 177.743 143.448C182.159 145.752 185.711 149.256 188.399 153.96C191.183 158.568 192.575 164.28 192.575 171.096V213H181.775V171.384C181.775 164.856 179.903 159.624 176.159 155.688C172.415 151.656 167.567 149.64 161.615 149.64C157.583 149.64 153.935 150.552 150.671 152.376C147.407 154.2 144.767 156.792 142.751 160.152C140.831 163.416 139.871 167.208 139.871 171.528V213H129.071Z" fill="#3D405B"/>
<path d="M247.065 214.152C237.657 214.152 230.025 212.904 224.169 210.408C218.313 207.816 213.897 204.264 210.921 199.752C208.041 195.24 206.361 190.152 205.881 184.488H217.113C217.401 189.096 218.937 192.84 221.721 195.72C224.505 198.504 228.153 200.568 232.665 201.912C237.273 203.256 242.313 203.928 247.785 203.928C255.849 203.928 262.233 202.536 266.937 199.752C271.641 196.872 273.993 192.648 273.993 187.08C273.993 183.72 272.793 181.032 270.393 179.016C268.089 176.904 264.969 175.176 261.033 173.832C257.193 172.488 252.969 171.288 248.361 170.232C243.753 169.08 239.097 167.88 234.393 166.632C229.785 165.384 225.513 163.8 221.577 161.88C217.737 159.96 214.617 157.512 212.217 154.536C209.913 151.464 208.761 147.576 208.761 142.872C208.761 135.096 211.737 128.76 217.689 123.864C223.737 118.968 232.713 116.52 244.617 116.52C253.065 116.52 260.025 117.816 265.497 120.408C270.969 122.904 275.049 126.216 277.737 130.344C280.521 134.472 282.057 138.936 282.345 143.736H271.257C270.681 138.936 268.281 134.904 264.057 131.64C259.833 128.28 253.353 126.6 244.617 126.6C239.241 126.6 234.873 127.128 231.513 128.184C228.153 129.24 225.561 130.632 223.737 132.36C222.009 133.992 220.809 135.72 220.137 137.544C219.561 139.368 219.273 141.096 219.273 142.728C219.273 145.896 220.425 148.488 222.729 150.504C225.129 152.424 228.249 154.056 232.089 155.4C236.025 156.648 240.345 157.8 245.049 158.856C249.753 159.912 254.409 161.112 259.017 162.456C263.721 163.704 267.993 165.336 271.833 167.352C275.769 169.272 278.889 171.768 281.193 174.84C283.593 177.912 284.793 181.848 284.793 186.648C284.793 195.48 281.433 202.296 274.713 207.096C267.993 211.8 258.777 214.152 247.065 214.152Z" fill="#3E6652"/>
</svg>
