<svg width="768" height="94" viewBox="0 0 768 94" fill="none" xmlns="http://www.w3.org/2000/svg">
<path d="M30.3753 92V14.579H0.114273V5.27799H70.4613V14.579H40.2003V92H30.3753ZM71.9115 92V26.5H81.7365V42.613C82.0858 41.4777 82.7408 39.993 83.7015 38.159C84.7495 36.2377 86.2342 34.3163 88.1555 32.395C90.0768 30.4737 92.4785 28.858 95.3605 27.548C98.3298 26.1507 101.823 25.452 105.84 25.452H106.495V35.277H105.316C100.426 35.277 96.1902 36.6307 92.6095 39.338C89.1162 41.958 86.4088 45.4077 84.4875 49.687C82.6535 53.879 81.7365 58.3767 81.7365 63.18V92H71.9115ZM143.049 93.048C136.673 93.048 131.084 91.5633 126.281 88.594C121.565 85.5373 117.897 81.4327 115.277 76.28C112.657 71.1273 111.347 65.4507 111.347 59.25C111.347 52.962 112.657 47.2853 115.277 42.22C117.897 37.0673 121.565 33.0063 126.281 30.037C131.084 26.9803 136.673 25.452 143.049 25.452C148.463 25.452 153.092 26.5 156.935 28.596C160.865 30.692 164.052 33.5303 166.498 37.111V26.5H176.323V92H166.498V81.52C164.052 85.0133 160.865 87.808 156.935 89.904C153.092 92 148.463 93.048 143.049 93.048ZM144.359 84.14C149.249 84.14 153.354 83.0047 156.673 80.734C160.079 78.4633 162.655 75.4503 164.402 71.695C166.148 67.8523 167.022 63.704 167.022 59.25C167.022 54.7087 166.148 50.5603 164.402 46.805C162.655 43.0497 160.079 40.0367 156.673 37.766C153.354 35.4953 149.249 34.36 144.359 34.36C139.555 34.36 135.407 35.4953 131.914 37.766C128.42 40.0367 125.757 43.0497 123.923 46.805C122.089 50.5603 121.172 54.7087 121.172 59.25C121.172 63.704 122.089 67.8523 123.923 71.695C125.757 75.4503 128.42 78.4633 131.914 80.734C135.407 83.0047 139.555 84.14 144.359 84.14ZM211.133 92L185.457 26.5H196.199L216.897 81.52L237.464 26.5H248.206L222.661 92H211.133ZM285.212 93.048C278.575 93.048 272.767 91.5633 267.789 88.594C262.811 85.5373 258.925 81.4327 256.13 76.28C253.423 71.1273 252.069 65.4507 252.069 59.25C252.069 52.962 253.379 47.2853 255.999 42.22C258.619 37.0673 262.375 33.0063 267.265 30.037C272.156 26.9803 277.92 25.452 284.557 25.452C291.282 25.452 297.046 26.9803 301.849 30.037C306.74 33.0063 310.495 37.0673 313.115 42.22C315.735 47.2853 317.045 52.962 317.045 59.25V63.18H262.156C262.68 67.0227 263.903 70.5597 265.824 73.791C267.833 76.935 270.497 79.4677 273.815 81.389C277.134 83.223 280.977 84.14 285.343 84.14C289.972 84.14 293.858 83.1357 297.002 81.127C300.146 79.031 302.592 76.3673 304.338 73.136H315.08C312.81 78.9873 309.185 83.7907 304.207 87.546C299.317 91.214 292.985 93.048 285.212 93.048ZM262.287 54.01H306.827C305.954 48.4207 303.596 43.7483 299.753 39.993C295.911 36.2377 290.845 34.36 284.557 34.36C278.269 34.36 273.204 36.2377 269.361 39.993C265.606 43.7483 263.248 48.4207 262.287 54.01ZM329.05 92V0.299994H338.875V92H329.05ZM355.915 92V26.5H365.74V36.718C368.098 33.574 370.98 30.9103 374.386 28.727C377.792 26.5437 382.159 25.452 387.486 25.452C392.028 25.452 396.263 26.5437 400.193 28.727C404.211 30.823 407.442 34.0107 409.887 38.29C412.42 42.482 413.686 47.6783 413.686 53.879V92H403.861V54.141C403.861 48.2023 402.158 43.4427 398.752 39.862C395.346 36.194 390.936 34.36 385.521 34.36C381.853 34.36 378.535 35.1897 375.565 36.849C372.596 38.5083 370.194 40.8663 368.36 43.923C366.614 46.8923 365.74 50.342 365.74 54.272V92H355.915Z" fill="#3D405B"/>
<path d="M463.258 93.048C454.699 93.048 447.756 91.9127 442.429 89.642C437.101 87.284 433.084 84.0527 430.377 79.948C427.757 75.8433 426.228 71.2147 425.792 66.062H436.01C436.272 70.254 437.669 73.66 440.202 76.28C442.734 78.8127 446.053 80.6903 450.158 81.913C454.35 83.1357 458.935 83.747 463.913 83.747C471.249 83.747 477.056 82.4807 481.336 79.948C485.615 77.328 487.755 73.4853 487.755 68.42C487.755 65.3633 486.663 62.918 484.48 61.084C482.384 59.1627 479.545 57.5907 475.965 56.368C472.471 55.1453 468.629 54.0537 464.437 53.093C460.245 52.045 456.009 50.9533 451.73 49.818C447.538 48.6827 443.651 47.2417 440.071 45.495C436.577 43.7483 433.739 41.5213 431.556 38.814C429.46 36.0193 428.412 32.4823 428.412 28.203C428.412 21.129 431.119 15.365 436.534 10.911C442.036 6.457 450.201 4.23 461.031 4.23C468.716 4.23 475.048 5.409 480.026 7.767C485.004 10.0377 488.715 13.0507 491.161 16.806C493.693 20.5613 495.091 24.6223 495.353 28.989H485.266C484.742 24.6223 482.558 20.9543 478.716 17.985C474.873 14.9283 468.978 13.4 461.031 13.4C456.14 13.4 452.166 13.8803 449.11 14.841C446.053 15.8017 443.695 17.068 442.036 18.64C440.464 20.1247 439.372 21.6967 438.761 23.356C438.237 25.0153 437.975 26.5873 437.975 28.072C437.975 30.954 439.023 33.312 441.119 35.146C443.302 36.8927 446.14 38.3773 449.634 39.6C453.214 40.7353 457.144 41.7833 461.424 42.744C465.703 43.7047 469.939 44.7963 474.131 46.019C478.41 47.1543 482.296 48.639 485.79 50.473C489.37 52.2197 492.209 54.4903 494.305 57.285C496.488 60.0797 497.58 63.6603 497.58 68.027C497.58 76.0617 494.523 82.2623 488.41 86.629C482.296 90.9083 473.912 93.048 463.258 93.048ZM510.71 92V0.299994H520.535V36.718C522.893 33.574 525.775 30.9103 529.181 28.727C532.587 26.5437 536.954 25.452 542.281 25.452C546.823 25.452 551.058 26.5437 554.988 28.727C559.006 30.823 562.237 34.0107 564.682 38.29C567.215 42.482 568.481 47.6783 568.481 53.879V92H558.656V54.141C558.656 48.2023 556.953 43.4427 553.547 39.862C550.141 36.194 545.731 34.36 540.316 34.36C536.648 34.36 533.33 35.1897 530.36 36.849C527.391 38.5083 524.989 40.8663 523.155 43.923C521.409 46.8923 520.535 50.342 520.535 54.272V92H510.71ZM612.551 93.048C606.175 93.048 600.586 91.5633 595.783 88.594C591.067 85.5373 587.399 81.4327 584.779 76.28C582.159 71.1273 580.849 65.4507 580.849 59.25C580.849 52.962 582.159 47.2853 584.779 42.22C587.399 37.0673 591.067 33.0063 595.783 30.037C600.586 26.9803 606.175 25.452 612.551 25.452C617.965 25.452 622.594 26.5 626.437 28.596C630.367 30.692 633.554 33.5303 636 37.111V26.5H645.825V92H636V81.52C633.554 85.0133 630.367 87.808 626.437 89.904C622.594 92 617.965 93.048 612.551 93.048ZM613.861 84.14C618.751 84.14 622.856 83.0047 626.175 80.734C629.581 78.4633 632.157 75.4503 633.904 71.695C635.65 67.8523 636.524 63.704 636.524 59.25C636.524 54.7087 635.65 50.5603 633.904 46.805C632.157 43.0497 629.581 40.0367 626.175 37.766C622.856 35.4953 618.751 34.36 613.861 34.36C609.057 34.36 604.909 35.4953 601.416 37.766C597.922 40.0367 595.259 43.0497 593.425 46.805C591.591 50.5603 590.674 54.7087 590.674 59.25C590.674 63.704 591.591 67.8523 593.425 71.695C595.259 75.4503 597.922 78.4633 601.416 80.734C604.909 83.0047 609.057 84.14 613.861 84.14ZM662.819 92V26.5H672.644V42.613C672.993 41.4777 673.648 39.993 674.609 38.159C675.657 36.2377 677.141 34.3163 679.063 32.395C680.984 30.4737 683.386 28.858 686.268 27.548C689.237 26.1507 692.73 25.452 696.748 25.452H697.403V35.277H696.224C691.333 35.277 687.097 36.6307 683.517 39.338C680.023 41.958 677.316 45.4077 675.395 49.687C673.561 53.879 672.644 58.3767 672.644 63.18V92H662.819ZM735.397 93.048C728.759 93.048 722.952 91.5633 717.974 88.594C712.996 85.5373 709.109 81.4327 706.315 76.28C703.607 71.1273 702.254 65.4507 702.254 59.25C702.254 52.962 703.564 47.2853 706.184 42.22C708.804 37.0673 712.559 33.0063 717.45 30.037C722.34 26.9803 728.104 25.452 734.742 25.452C741.466 25.452 747.23 26.9803 752.034 30.037C756.924 33.0063 760.68 37.0673 763.3 42.22C765.92 47.2853 767.23 52.962 767.23 59.25V63.18H712.341C712.865 67.0227 714.087 70.5597 716.009 73.791C718.017 76.935 720.681 79.4677 724 81.389C727.318 83.223 731.161 84.14 735.528 84.14C740.156 84.14 744.043 83.1357 747.187 81.127C750.331 79.031 752.776 76.3673 754.523 73.136H765.265C762.994 78.9873 759.37 83.7907 754.392 87.546C749.501 91.214 743.169 93.048 735.397 93.048ZM712.472 54.01H757.012C756.138 48.4207 753.78 43.7483 749.938 39.993C746.095 36.2377 741.03 34.36 734.742 34.36C728.454 34.36 723.388 36.2377 719.546 39.993C715.79 43.7483 713.432 48.4207 712.472 54.01Z" fill="#3E6652"/>
</svg>
